<?xml version="1.0" encoding="utf-8"?>
<!-- Generator: Adobe Illustrator 23.0.3, SVG Export Plug-In . SVG Version: 6.00 Build 0)  -->
<svg version="1.1" id="Capa_1" xmlns="http://www.w3.org/2000/svg" xmlns:xlink="http://www.w3.org/1999/xlink" x="0px" y="0px"
	 viewBox="0 0 500 500" style="enable-background:new 0 0 500 500;" xml:space="preserve">
<style type="text/css">
	.st0{fill:#00E59E;}
	.st1{fill:#06C17E;}
</style>
<g>
	<g>
		<path class="st0" d="M420.32,6.1L250.01,91.9v57.59l170.31-85.8c5.61-2.83,10.2-10.28,10.2-16.57V12.38
			C430.52,6.1,425.93,3.27,420.32,6.1z"/>
		<path class="st0" d="M420.32,121.27l-170.31,85.8v57.59l110.9-55.87l9.14-4.61c5.61-2.83,10.2,0,10.2,6.28v34.74
			c0,6.28-4.59,13.74-10.2,16.56l-120.04,60.47v57.59l170.31-85.8c5.61-2.83,10.2-10.28,10.2-16.57V127.55
			C430.52,121.27,425.93,118.44,420.32,121.27z"/>
		<path class="st0" d="M420.32,351.62l-170.31,85.8V495l170.31-85.8c5.61-2.83,10.2-10.28,10.2-16.57V357.9
			C430.52,351.62,425.93,348.79,420.32,351.62z"/>
	</g>
	<g>
		<path class="st1" d="M69.48,242.73v149.91c0,6.28,4.59,13.74,10.2,16.57L249.99,495v-57.59l-120.04-60.47
			c-5.61-2.83-10.2-10.28-10.2-16.56v-34.74c0-6.28,4.59-9.11,10.2-6.28l120.04,60.47v-57.59l-170.31-85.8
			C74.07,233.62,69.48,236.44,69.48,242.73z"/>
		<path class="st1" d="M129.95,89.01l120.04,60.47V91.9L79.68,6.1c-5.61-2.83-10.2,0-10.2,6.28v149.91c0,6.28,4.59,13.74,10.2,16.57
			l170.31,85.8v-57.59L130.37,146.8l-0.42-0.21c-5.61-2.83-10.2-10.28-10.2-16.56V95.29C119.75,89.01,124.34,86.18,129.95,89.01z"/>
	</g>
</g>
</svg>
