<svg id="Capa_1" data-name="Capa 1" xmlns="http://www.w3.org/2000/svg" viewBox="0 0 980 980"><defs><style>.cls-1{fill:#fff;}</style></defs><title>backup</title><path class="cls-1" d="M142.87,73.14C132.5,108.94,98.58,226.73,67.48,337L10,536.75V990H990V536.76L932.52,337c-31.1-110.25-65-228-75.38-263.85L838.29,10H613.08V85.38H781.76l15.07,49c7.54,27.33,36.75,129.09,65,226.15l49.94,177.15H88.21l50-177.15c28.27-97.06,57.48-198.83,65-226.15l15.08-49H386.93V10H161.71ZM914.62,763.85V914.62H85.38V613.08H914.62Z" transform="translate(-10 -10)"/><path class="cls-1" d="M712,712c-47.12,46.18-14.14,127.21,51.83,127.21,38.63,0,75.38-36.75,75.38-75.38s-36.75-75.38-75.38-75.38C745.94,688.46,726.15,697,712,712Z" transform="translate(-10 -10)"/><path class="cls-1" d="M462.31,162.66V315.31l-64.08-63.13C363.36,217.31,330.38,189,324.73,189s-19.79,10.36-32,23.56l-22.61,24.5,115,115L500,467l115-115,115-115-22.62-24.5c-12.25-13.19-26.38-23.56-32-23.56s-38.63,28.27-73.5,63.14l-64.08,63.13V10H462.31Z" transform="translate(-10 -10)"/></svg>