<svg id="Capa_1" data-name="Capa 1" xmlns="http://www.w3.org/2000/svg" viewBox="0 0 737.42 493.85"><defs><style>.cls-1{fill:#fff;}</style></defs><title>cpanel</title><path class="cls-1" d="M200.26,258.61H339.77l-21.6,82.72a52.3,52.3,0,0,1-18.52,27.78,50,50,0,0,1-31.48,10.5H203.35q-22.23,0-39.2,13t-23.77,35.19q-4.32,16.67-.92,31.48a67.93,67.93,0,0,0,12,26.23,62.27,62.27,0,0,0,22.23,18.22,65.2,65.2,0,0,0,29.63,6.78h39.5a22.24,22.24,0,0,1,18.21,8.95,21.44,21.44,0,0,1,4,20.06l-24.69,91.37H197.18q-44.44,0-81.8-19.45a184.66,184.66,0,0,1-62-51.54A181.8,181.8,0,0,1,19.7,486.71q-9-41.06,2.16-84.27l2.47-9.26A182.34,182.34,0,0,1,89.45,296,184.86,184.86,0,0,1,141,268.49,179.15,179.15,0,0,1,200.26,258.61Z" transform="translate(-15.7 -137)"/><path class="cls-1" d="M270.63,630.85,392.24,175.28a52.21,52.21,0,0,1,18.52-27.78A50,50,0,0,1,442.24,137h129q44.44,0,81.79,19.45a183.53,183.53,0,0,1,96,124.69q9.27,41.07-2.47,84.26l-2.46,9.27a185.29,185.29,0,0,1-24.69,54.63,180.4,180.4,0,0,1-150.63,80.56H457.06l22.22-83.34a52.25,52.25,0,0,1,18.52-27.17,50,50,0,0,1,31.48-10.49h35.81a64.93,64.93,0,0,0,63-48.77,60.6,60.6,0,0,0,.93-30.24,68.28,68.28,0,0,0-12-26.24,65.67,65.67,0,0,0-22.22-18.52,63.19,63.19,0,0,0-29.63-7.1H495.94l-90.12,335.2a52.28,52.28,0,0,1-18.53,27.16,49.05,49.05,0,0,1-30.86,10.5Z" transform="translate(-15.7 -137)"/></svg>