<svg id="Capa_1" data-name="Capa 1" xmlns="http://www.w3.org/2000/svg" viewBox="0 0 771.18 1000"><defs><style>.cls-1{fill:#fff;}</style></defs><title>litespeed</title><path class="cls-1" d="M903.32,510.54l-230-229.87-98,124.2L680.9,510.54a25,25,0,0,1,0,35.51l-30.49,30.48s20.79,30.84,21.48,32.91c4.85,9.36,5.89,31.7-7.62,41.92L424,835.67V1025l479.3-478.95A25.3,25.3,0,0,0,903.32,510.54Z" transform="translate(-139.41 -25)"/><path class="cls-1" d="M474.77,645.47,369.1,539.81v-.35a25.08,25.08,0,0,1,0-35.33l30.49-30.66L378.8,443.33a32.72,32.72,0,0,1,6.93-44.69L626.16,214.33V25h-.34L146.69,504.13a25.28,25.28,0,0,0,0,35.51l230,230.21Z" transform="translate(-139.41 -25)"/><path class="cls-1" d="M648.68,613.43v.17a4.86,4.86,0,0,0-.72-.69l.72.52L533,447.14c-4.85-7.28-4.5-18.54.69-25.29L744,154.92c3.47-4.16,4.16-6.24,3.12-6.24-.87,0-2.77,1-5.54,3.46L402.88,412a16.43,16.43,0,0,0-3.12,22.18l32.5,23.4c-19.83-14.12-32.67-23.23-32.67-23.23L517,603.38c4.85,6.93,4.33,18.19-.86,25.12L305.71,895.6c-3.12,4-4,6.07-2.78,6.07.87,0,2.6-1,5.55-3.47L647,638.37C653.88,633.18,651.45,617.59,648.68,613.43Z" transform="translate(-139.41 -25)"/></svg>