<svg id="Layer_1" data-name="Layer 1" xmlns="http://www.w3.org/2000/svg" viewBox="0 0 501.64 524"><defs><style>.cls-1{fill:#fff;}</style></defs><title>plesk</title><path class="cls-1" d="M87.33,562H49.18V160.71q48.11-14.93,94.52-14.93,33.72,0,61.36,10.5t47.26,29.3a127.36,127.36,0,0,1,30.12,44.77A149.12,149.12,0,0,1,293,286.73q0,37-12.71,63.57T246.79,394a134,134,0,0,1-47.26,25.16,186.47,186.47,0,0,1-54.17,8,194,194,0,0,1-29.29-2.21,264.57,264.57,0,0,1-28.74-6.08Zm162-275.82q0-48.09-26.82-77.66T147,179a237.6,237.6,0,0,0-30.39,1.93,147.5,147.5,0,0,0-29.3,6.91V383.46a254.5,254.5,0,0,0,27.36,7.47,129.3,129.3,0,0,0,27.36,3q49.19,0,78.21-27.91T249.29,286.18Z" transform="translate(-49.18 -38)"/><path class="cls-1" d="M370.33,424.92V38H409V424.92Z" transform="translate(-49.18 -38)"/><path class="cls-1" d="M550.82,486.11H378.75V459.2H550.82Z" transform="translate(-49.18 -38)"/></svg>