<svg id="Capa_1" data-name="Capa 1" xmlns="http://www.w3.org/2000/svg" viewBox="0 0 980 731.4"><defs><style>.cls-1{fill:#fff;}</style></defs><title>vpn</title><path class="cls-1" d="M667.3,817.2c0,26.8-14.1,48.5-31.6,48.5H375.6c-17.5,0-31.6-21.7-31.6-48.5h0c0-26.8,14.1-48.5,31.6-48.5H635.8c17.4,0,31.5,21.7,31.5,48.5Z" transform="translate(-10 -134.3)"/><path class="cls-1" d="M214.8,784.9H796.7v64.7H214.8Z" transform="translate(-10 -134.3)"/><path class="cls-1" d="M10,134.3V716.2H990V134.3ZM255,552.6H219.6L118.8,292.3h37.3l67.6,189.1c5.4,15.1,10,29.4,13.6,42.6,4-14.2,8.7-28.4,14-42.6l70.3-189.1h35.2ZM565.4,423.8c-14.2,15.3-39.6,23-76.4,23H422.2V552.6H387.7V292.3H486c17.3,0,30.5.8,39.6,2.5,12.7,2.1,23.5,6.1,32.1,12.2,8.7,5.9,15.6,14.4,20.8,25.1a79.41,79.41,0,0,1,8,35.5C586.6,389.8,579.5,408.5,565.4,423.8ZM835.2,552.6H799.8L663.1,348.1V552.7h-33V292.3h35.3L802.1,496.7V292.3h33V552.6Z" transform="translate(-10 -134.3)"/><path class="cls-1" d="M521,325.4c-5.8-1.6-16.5-2.3-32.1-2.3H422.3v93h67.3c22.2,0,38-4.1,47.4-12.4s14-20,14-35c0-10.9-2.8-20.2-8.2-28A38.29,38.29,0,0,0,521,325.4Z" transform="translate(-10 -134.3)"/></svg>