<?xml version="1.0" encoding="utf-8"?>
<!-- Generator: Adobe Illustrator 24.0.1, SVG Export Plug-In . SVG Version: 6.00 Build 0)  -->
<svg version="1.1" id="Layer_1" xmlns="http://www.w3.org/2000/svg" xmlns:xlink="http://www.w3.org/1999/xlink" x="0px" y="0px"
	 viewBox="0 0 512 512" style="enable-background:new 0 0 512 512;" xml:space="preserve">
<style type="text/css">
	.st0{fill:#001E2B;}
	.st1{fill:#06C17E;}
</style>
<g>
	<path class="st0" d="M233.5,100.8h188.8v12H233.5L233.5,100.8z"/>
	<path class="st0" d="M177.4,138.2h244.8v12H177.4L177.4,138.2z"/>
	<path class="st0" d="M177.4,175.6h244.8v12H177.4L177.4,175.6z"/>
	<path class="st0" d="M177.4,213h244.8v12H177.4L177.4,213z"/>
	<path class="st0" d="M177.4,250.3h179.4v12H177.4V250.3z"/>
</g>
<path class="st1" d="M24.4,463.1c2.2,0.9,4.8,0.4,6.5-1.3l67.5-67.4h299.1c3.3,0,6-2.7,6-6v-80.8h-12v74.8H96
	c-1.6,0-3.1,0.6-4.2,1.8l-59.1,58.9V141.2h81.6v-12H26.7c-3.3,0-6,2.7-6,6v322.3C20.7,459.9,22.2,462.1,24.4,463.1z"/>
<path class="st1" d="M50.2,157.2h12V172h-12V157.2z"/>
<path class="st1" d="M50.2,183.8h12V339h-12V183.8z"/>
<path class="st0" d="M114.4,313.6h299.1L481,381c2.3,2.3,6.1,2.3,8.5,0c1.1-1.1,1.8-2.6,1.8-4.2V54.5c0-3.3-2.7-6-6-6H114.4
	c-3.3,0-6,2.7-6,6v253.1C108.4,310.9,111,313.6,114.4,313.6L114.4,313.6z M120.4,60.5h358.9v301.8l-59.1-58.9
	c-1.1-1.1-2.6-1.8-4.2-1.8H120.4L120.4,60.5z"/>
</svg>
