<?xml version="1.0" encoding="utf-8"?>
<!-- Generator: Adobe Illustrator 24.0.1, SVG Export Plug-In . SVG Version: 6.00 Build 0)  -->
<svg version="1.1" id="Layer_1" xmlns="http://www.w3.org/2000/svg" xmlns:xlink="http://www.w3.org/1999/xlink" x="0px" y="0px"
	 viewBox="0 0 512 512" style="enable-background:new 0 0 512 512;" xml:space="preserve">
<style type="text/css">
	.st0{fill:#001E2B;}
	.st1{fill:#06C17E;}
</style>
<path class="st0" d="M469.9,62.8h-24v-5.5c0.1-12.6-10.1-22.9-22.7-23c-12.6-0.1-22.9,10.1-23,22.7c0,0.1,0,0.2,0,0.3v5.5h-38.3
	v-5.5c0.1-12.6-10.1-22.9-22.7-23c-12.6-0.1-22.9,10.1-23,22.7c0,0.1,0,0.2,0,0.3v5.5h-38.3v-5.5c0.1-12.6-10.1-22.9-22.7-23
	S232.1,44.4,232,57c0,0.1,0,0.2,0,0.3v5.5h-38.3v-5.5c0-12.6-10.2-22.9-22.9-22.9s-22.9,10.2-22.9,22.9v5.5h-38.3v-5.5
	c0.1-12.6-10.1-22.9-22.7-23S64,44.4,63.9,57c0,0.1,0,0.2,0,0.3v5.5H42.1C24.4,62.8,10,77.2,10,94.9v359.7c0,12.7,10.3,22.9,23,22.9
	h446c12.7,0,23-10.3,23-22.9V94.9C502,77.2,487.6,62.8,469.9,62.8z M412.1,57.3c-0.1-6,4.8-10.9,10.8-11c6-0.1,10.9,4.8,11,10.8
	c0,0.1,0,0.1,0,0.2v21.2c0.1,6-4.8,10.9-10.8,11s-10.9-4.8-11-10.8c0-0.1,0-0.1,0-0.2V57.3z M328.1,57.3c-0.1-6,4.8-10.9,10.8-11
	c6-0.1,10.9,4.8,11,10.8c0,0.1,0,0.1,0,0.2v21.2c0.1,6-4.8,10.9-10.8,11s-10.9-4.8-11-10.8c0-0.1,0-0.1,0-0.2V57.3z M244,57.3
	c-0.1-6,4.8-10.9,10.8-11c6-0.1,10.9,4.8,11,10.8c0,0.1,0,0.1,0,0.2v21.2c0.1,6-4.8,10.9-10.8,11c-6,0.1-10.9-4.8-11-10.8
	c0-0.1,0-0.1,0-0.2V57.3z M159.9,57.3c0-6,4.9-10.9,10.9-10.9s10.9,4.9,10.9,10.9v21.2c0,6-4.9,10.9-10.9,10.9s-10.9-4.9-10.9-10.9
	V57.3z M75.9,57.3c-0.1-6,4.8-10.9,10.8-11c6-0.1,10.9,4.8,11,10.8c0,0.1,0,0.1,0,0.2v21.2c0.1,6-4.8,10.9-10.8,11
	s-10.9-4.8-11-10.8c0-0.1,0-0.1,0-0.2V57.3z M42.1,74.8h21.8v3.7c-0.1,12.6,10.1,22.9,22.7,23s22.9-10.1,23-22.7c0-0.1,0-0.2,0-0.3
	v-3.7h38.3v3.7c0,12.6,10.2,22.9,22.9,22.9s22.9-10.2,22.9-22.9v-3.7H232v3.7c-0.1,12.6,10.1,22.9,22.7,23
	c12.6,0.1,22.9-10.1,23-22.7c0-0.1,0-0.2,0-0.3v-3.7h38.3v3.7c-0.1,12.6,10.1,22.9,22.7,23c12.6,0.1,22.9-10.1,23-22.7
	c0-0.1,0-0.2,0-0.3v-3.7h38.3v3.7c-0.1,12.6,10.1,22.9,22.7,23c12.6,0.1,22.9-10.1,23-22.7c0-0.1,0-0.2,0-0.3v-3.7h24
	c11.1,0,20.1,9,20.1,20.1v62.7H22V94.9C22,83.8,31,74.8,42.1,74.8L42.1,74.8z M479,465.5H33c-6,0-11-4.9-11-10.9v-285h468v285
	C490,460.6,485.1,465.5,479,465.5L479,465.5z"/>
<g>
	<path class="st1" d="M204.1,209.9c-3.7,0-7.2,1.3-10,3.6l-27.2,20.7c-5.3,3.5-8.4,9.5-8.4,15.9c0,10,7.1,18.1,15.8,18.1
		c2.5,0,4.9-0.6,7.1-1.8v110.4c0,9.1,8.7,15.5,21.2,15.5c12.3,0,21.2-6.5,21.2-15.5V225.7C223.7,216,213.5,209.9,204.1,209.9
		L204.1,209.9z M211.7,376.8c0,1.6-4.1,3.5-9.2,3.5c-5.2,0-9.2-1.9-9.2-3.5V252.7c0-3.3-2.7-6-6-6c-1.6,0-3.1,0.6-4.2,1.8l-7.3,7.3
		c-0.4,0.3-1,0.5-1.5,0.5c-1.9,0-3.8-3-3.8-6.1c0-2.3,1.1-4.5,3-5.8c0.2-0.1,0.3-0.2,0.5-0.3l27.5-20.9c0.1-0.1,0.2-0.1,0.3-0.2
		c0.7-0.6,1.5-0.9,2.4-0.9c3.9,0,7.5,2.1,7.5,3.8L211.7,376.8z"/>
	<path class="st1" d="M333.5,353.6h-58.8c0.5-6.7,12.1-14.7,24.4-23.2c22-15.2,49.4-34.2,49.4-67c0-34.5-30-53.2-58.2-53.2
		c-14.5,0-28.1,4.5-38.5,12.7c-11.2,8.6-17.7,21.9-17.6,36c0,19.4,12.4,22.3,19.8,22.3c14.2,0,21.9-8.8,21.9-17.2
		c0-9.6,5-14.5,14.7-14.5c15.2,0,15.7,13.2,15.7,14.7c0,12.8-16.2,24.6-33.3,37.1c-20.5,15-41.8,30.4-41.8,52.7v22.5
		c0,10,11.4,15.5,19.3,15.5h83c8.4,0,15.6-8.9,15.6-19.5C349.1,362.1,342.1,353.6,333.5,353.6L333.5,353.6z M333.5,380.1h-83
		c-3.5,0-7.3-2.5-7.3-3.5V354c0-16.1,18.7-29.8,36.8-43c18.8-13.7,38.2-27.8,38.2-46.8c0-6.6-2.3-12.9-6.6-17.9
		c-3.5-4-10.1-8.8-21.1-8.8c-16.5,0-26.7,10.1-26.7,26.5c0,2.2-3.4,5.2-9.9,5.2c-4.4,0-7.8-0.8-7.8-10.3c0-23.9,22.7-36.8,44.1-36.8
		c30.3,0,46.2,20.7,46.2,41.2c0,26.5-23.5,42.8-44.3,57.1c-15.9,11-29.6,20.5-29.6,33.5v5.6c0,3.3,2.7,6,6,6h64.8
		c1.1,0,3.6,2.7,3.6,7C337.1,377.1,334.4,380.1,333.5,380.1L333.5,380.1z"/>
</g>
</svg>
