<?xml version="1.0" encoding="utf-8"?>
<!-- Generator: Adobe Illustrator 24.0.1, SVG Export Plug-In . SVG Version: 6.00 Build 0)  -->
<svg version="1.1" id="Layer_1" xmlns="http://www.w3.org/2000/svg" xmlns:xlink="http://www.w3.org/1999/xlink" x="0px" y="0px"
	 viewBox="0 0 512 512" style="enable-background:new 0 0 512 512;" xml:space="preserve">
<style type="text/css">
	.st0{fill:#06C17E;}
	.st1{fill:#001E2B;}
</style>
<path class="st0" d="M216,341h80v109h12V335.3c0.1-3.4-2.5-6.2-5.9-6.3h-91.9c-3.4,0.1-6.2,2.9-6.2,6.3V450h12V341z"/>
<path class="st0" d="M256,211.5c20.4,0,37-16.6,37-37s-16.6-37-37-37s-37,16.6-37,37C219,195,235.6,211.5,256,211.5z M256,149.5
	c13.8,0,25,11.2,25,25s-11.2,25-25,25c-13.8,0-25-11.2-25-25C231,160.7,242.2,149.5,256,149.5z"/>
<g>
	<path class="st1" d="M120,339.1c3.3,0,6-2.7,6-6v-4.8c0-3.3-2.7-6-6-6s-6,2.7-6,6v4.8C114,336.5,116.7,339.1,120,339.1z"/>
	<path class="st1" d="M120,428.1c3.3,0,6-2.7,6-6V355c0-3.3-2.7-6-6-6s-6,2.7-6,6v67.2C114,425.5,116.7,428.1,120,428.1z"/>
	<path class="st1" d="M474.8,212.4L403,159.7V80.1c0-3.4-2.8-6.1-6.1-6.1H352c-3.3,0-6,2.7-6,6v38.9l-83.3-60.7
		c-4.2-3.1-9.9-3.1-14.1,0L37.3,212.5c-4.4,3.1-6.1,8.7-4.2,13.7c1.8,4.7,6.4,7.9,11.4,7.8H85v38c0,3.3,2.7,6,6,6s6-2.7,6-6v-43.9
		c0-3.3-2.7-6-6-6H44.3L255.6,67.9l92.9,67.7c2.2,1.6,5.2,1.5,7.4-0.2c1.4-1.2,2.2-3,2.2-4.8V86h33v76.7c0,1.9,0.9,3.7,2.5,4.8
		l74.2,54.5h-46.5c-3.4,0-6.1,2.8-6.1,6.1v206c0,5.4-4.4,9.9-9.9,9.9H107c-5.5,0-10-4.5-10-10V314c0-3.3-2.7-6-6-6s-6,2.7-6,6v120
		c0,12.2,9.9,22,22,22h298c12.1,0,22-9.8,22-22l0,0V234h40.5c5.1,0.1,9.6-3,11.4-7.7C480.8,221.2,479.1,215.6,474.8,212.4
		L474.8,212.4z"/>
</g>
</svg>
