<?xml version="1.0" encoding="utf-8"?>
<!-- Generator: Adobe Illustrator 24.0.1, SVG Export Plug-In . SVG Version: 6.00 Build 0)  -->
<svg version="1.1" id="Layer_1" xmlns="http://www.w3.org/2000/svg" xmlns:xlink="http://www.w3.org/1999/xlink" x="0px" y="0px"
	 viewBox="0 0 512 512" style="enable-background:new 0 0 512 512;" xml:space="preserve">
<style type="text/css">
	.st0{fill:#001E2B;}
	.st1{fill:#06C17E;}
</style>
<g>
	<path class="st0" d="M473.2,11.3H38.8C20.2,11.3,5,26,5,44.1v298.3c0,18.1,15.2,32.8,33.8,32.8h269.7v-12H38.8
		c-12,0-21.8-9.3-21.8-20.8V44.1c0-11.5,9.8-20.8,21.8-20.8h434.3c12,0,21.8,9.3,21.8,20.8v298.3c0,11.5-9.8,20.8-21.8,20.8h-33.7
		v12h33.7c18.7,0,33.8-14.7,33.8-32.8V44.1C507,26,491.8,11.3,473.2,11.3L473.2,11.3z"/>
	<path class="st0" d="M203.3,191.2V70c0-4.4-3.6-8-8-8H69.4c-4.4,0-8,3.6-8,8v121.2c0,4.4,3.6,8,8,8h125.9
		C199.7,199.2,203.3,195.6,203.3,191.2z M191.3,187.2H73.4V74h117.9V187.2z"/>
	<path class="st0" d="M235.5,99.1L235.5,99.1L428,97.6c3.3,0,6-2.7,6-6c0-3.3-2.7-6-6-6h0l-192.5,1.5c-3.3,0-6,2.7-6,6
		C229.5,96.5,232.2,99.1,235.5,99.1L235.5,99.1z"/>
	<path class="st0" d="M434.2,165.6c0-3.3-2.7-6-6-6h0l-192.5,1.5c-3.3,0-6,2.7-6,6c0,3.3,2.7,6,6,6h0l192.5-1.5
		C431.6,171.7,434.2,169,434.2,165.6C434.2,165.6,434.2,165.6,434.2,165.6L434.2,165.6z"/>
	<path class="st0" d="M74.9,252.3L74.9,252.3l177.4-1.4c3.3,0,6-2.7,5.9-6.1s-2.7-6-6.1-5.9l-177.4,1.4c-3.3,0-6,2.7-6,6
		S71.6,252.3,74.9,252.3L74.9,252.3z"/>
	<path class="st0" d="M75.1,326.4L75.1,326.4l177.4-1.4c3.3,0,6-2.7,6-6c0-3.3-2.7-6-6-6l0,0h0l-177.4,1.4c-3.3,0-6,2.7-6,6
		S71.8,326.4,75.1,326.4z"/>
</g>
<g>
	<path class="st1" d="M370.9,341.7c0.4,0,0.8,0,1.2,0c26.8,0,49-20.8,49.7-46.9c0.3-12.6-4.4-24.7-13.1-33.8
		c-9.2-9.7-22-15.3-35.3-15.5c-27.4-0.6-50.2,20.4-50.9,46.9c-0.3,12.6,4.4,24.7,13.1,33.8C344.8,335.8,357.5,341.4,370.9,341.7z
		 M334.4,292.7c0.5-19.6,17.3-35.2,37.7-35.2c0.3,0,0.6,0,0.9,0c10.2,0.2,19.9,4.4,26.9,11.8c6.5,6.8,10.1,15.8,9.8,25.2
		c-0.5,19.9-17.8,35.7-38.6,35.2c-10.2-0.2-19.9-4.4-26.9-11.8C337.7,311.1,334.2,302,334.4,292.7L334.4,292.7z"/>
	<path class="st1" d="M439.2,349.6c5.5-0.7,11.2-1.9,14.4-6.7c3.6-5.6,1.4-12.4-0.6-18.3c-0.9-2.6-2.3-6.9-1.9-8.2
		c0.4-1.2,3.9-3.9,6-5.4c5.1-3.8,10.9-8.2,11.1-15.1s-5.4-11.5-10.3-15.6c-2-1.7-5.4-4.5-5.7-5.7c-0.4-1.4,1.3-5.6,2.3-8.1
		c2.3-5.8,4.9-12.5,1.5-18.2s-10.4-6.9-16.6-7.8c-2.7-0.4-7.1-1.1-8.1-2.1c-0.9-0.9-1.6-5.3-2-8c-1-6.2-2.1-13.3-7.9-16.6
		c-5.7-3.3-12.3-0.8-18.1,1.4c-2.6,1-6.8,2.6-8.2,2.2c-1.2-0.4-3.9-3.8-5.5-5.9c-3.9-5-8.3-10.7-15.1-10.8
		c-6.8-0.1-11.5,5.3-15.6,10.1c-1.7,2-4.5,5.3-5.8,5.6c-1.4,0.3-5.6-1.5-8.1-2.6c-5.7-2.5-12.2-5.3-18-2.3c-6,3.1-7.4,10.1-8.7,16.2
		c-0.5,2.6-1.5,7-2.4,7.9c-1,0.9-5.5,1.4-8.2,1.7c-6.3,0.6-13.3,1.4-17,7s-1.4,12.4,0.6,18.3c0.9,2.6,2.3,6.9,1.9,8.2
		c-0.4,1.2-3.9,3.9-6,5.4c-5.1,3.8-10.9,8.2-11.1,15.1s5.4,11.5,10.3,15.6c2,1.7,5.4,4.5,5.7,5.7c0.4,1.4-1.3,5.6-2.3,8.1
		c-2.3,5.8-4.9,12.5-1.5,18.2s10.4,6.9,16.6,7.8c1.2,0.2,2.7,0.4,4.1,0.7c-0.4,0.5-0.6,1.1-0.8,1.7l-37.7,130.1
		c-0.9,3.2,0.9,6.5,4.1,7.4c1.4,0.4,3,0.3,4.3-0.4l35.3-17.5l24.8,29.8c2.1,2.5,5.9,2.9,8.4,0.8c0.9-0.8,1.6-1.8,1.9-2.9l30-100.3
		l23.3,94.2c0.8,3.2,4,5.2,7.3,4.4c1.1-0.3,2.2-0.9,3-1.8l26.2-28.6l34.3,19.1c2.9,1.6,6.5,0.6,8.2-2.3c0.8-1.5,1-3.2,0.4-4.8
		L439.2,349.6z M298.7,332.9c-0.2-1.4,1.4-5.6,2.3-7.8c2-5.1,4.1-10.3,2.7-15.5c-1.3-5-5.5-8.5-9.6-12c-2-1.7-5.6-4.7-6-6.1
		c0.4-1.3,4.2-4.2,6.3-5.8c4.3-3.2,8.7-6.6,10.2-11.5c1.6-5.1-0.2-10.4-2-15.6c-0.8-2.3-2.2-6.6-1.9-8c1.1-0.9,5.6-1.3,8.1-1.6
		c5.4-0.6,11.1-1.1,15-4.7c3.9-3.5,5-9,6.2-14.4c0.5-2.5,1.5-7.1,2.4-8c1.4-0.2,5.5,1.6,7.7,2.6c5.1,2.2,10.3,4.5,15.6,3.3
		c5.1-1.2,8.7-5.4,12.2-9.5c1.7-2,4.9-5.7,6.1-5.9c1.3,0.3,4.3,4.1,5.9,6.2c3.3,4.3,6.8,8.7,11.8,10.1c5.2,1.4,10.5-0.6,15.7-2.6
		c2.4-0.9,6.4-2.4,7.8-2.2c0.9,1.1,1.7,5.6,2,8.1c0.8,5.4,1.7,10.9,5.4,14.6c3.7,3.7,9.3,4.6,14.7,5.4c2.4,0.4,6.9,1.1,8,2
		c0.2,1.4-1.4,5.6-2.3,7.8c-2,5.1-4.1,10.3-2.7,15.5c1.3,5,5.5,8.5,9.6,12c2,1.7,5.6,4.7,6,6.1c-0.4,1.3-4.2,4.2-6.3,5.8
		c-4.3,3.2-8.7,6.6-10.2,11.5c-1.6,5.1,0.2,10.4,2,15.6c0.8,2.3,2.2,6.6,1.9,8c-1.1,0.9-5.6,1.3-8.1,1.6c-5.4,0.6-11.1,1.1-15,4.7
		c-3.9,3.5-5,9-6.2,14.4c-0.5,2.5-1.5,7.1-2.4,8c-1.4,0.2-5.5-1.6-7.7-2.6c-5.1-2.2-10.3-4.5-15.6-3.3c-5.1,1.2-8.7,5.4-12.2,9.5
		c-0.1,0-0.1,0.1-0.2,0.1s-0.1,0.1-0.2,0.2c-0.1,0.1-0.2,0.1-0.2,0.2c-0.1,0.1-0.1,0.1-0.2,0.2s-0.1,0.1-0.2,0.2s-0.1,0.2-0.2,0.2
		c-0.1,0.1-0.1,0.1-0.2,0.2c-0.1,0.1-0.1,0.2-0.2,0.3c0,0.1-0.1,0.1-0.1,0.2c0,0.1-0.1,0.1-0.1,0.2c-1.6,1.8-3.5,3.8-4.4,4
		c-1.3-0.3-4.3-4.1-5.9-6.2c-3.3-4.3-6.8-8.7-11.8-10.1c-1.2-0.3-2.4-0.5-3.7-0.5c-4,0-8.1,1.5-12,3c-2.4,0.9-6.4,2.4-7.8,2.2
		c-0.9-1.1-1.7-5.6-2-8.1c-0.8-5.4-1.7-10.9-5.4-14.6c-3.7-3.7-9.3-4.6-14.7-5.4C304.2,334.5,299.8,333.8,298.7,332.9z M340.9,482.3
		l-20.6-24.8c-1.8-2.1-4.8-2.8-7.3-1.5l-27.3,13.5l30.6-105.7c1.1,3.9,2.9,7.5,6.5,9.6c5.7,3.3,12.3,0.8,18.1-1.4
		c2.6-1,6.8-2.6,8.2-2.2c1.2,0.4,3.9,3.8,5.5,5.9c3.9,5,8.2,10.6,14.9,10.8L340.9,482.3z M440.8,451.6c-2.4-1.4-5.5-0.9-7.3,1.2
		l-21.9,23.8l-25.1-101.5c1.6-1.9,3.7-4.1,4.7-4.4c1.4-0.3,5.6,1.5,8.1,2.6c5.7,2.5,12.2,5.3,18,2.3c6-3.1,7.4-10.1,8.7-16.2
		c0.4-2.2,1-4.4,1.7-6.5l38.1,112.6L440.8,451.6z"/>
</g>
</svg>
