<?xml version="1.0" encoding="utf-8"?>
<!-- Generator: Adobe Illustrator 24.0.1, SVG Export Plug-In . SVG Version: 6.00 Build 0)  -->
<svg version="1.1" id="Layer_1" xmlns="http://www.w3.org/2000/svg" xmlns:xlink="http://www.w3.org/1999/xlink" x="0px" y="0px"
	 viewBox="0 0 512 512" style="enable-background:new 0 0 512 512;" xml:space="preserve">
<style type="text/css">
	.st0{fill:#001E2B;}
	.st1{fill:#06C17E;}
</style>
<g>
	<path class="st0" d="M53,154.2c-3.3,0-6,2.7-6,6v4.8c0,3.3,2.7,6,6,6s6-2.7,6-6v-4.8C59,156.9,56.3,154.2,53,154.2
		C53,154.2,53,154.2,53,154.2z"/>
	<path class="st0" d="M53,180.8c-3.3,0-6,2.7-6,6V258c0,3.3,2.7,6,6,6s6-2.7,6-6v-71.2C59,183.5,56.3,180.8,53,180.8z"/>
	<path class="st0" d="M466,92H46c-14.4,0-26,11.6-26,26v276c0,14.4,11.6,26,26,26l0,0h36c3.3,0,6-2.7,6-6s-2.7-6-6-6H46
		c-1.6,0-3.3-0.3-4.8-0.9l172.7-149.4l-7.9-9.1L32.8,398.5c-0.5-1.5-0.8-3-0.8-4.5V118.1c0-7.8,6.3-14.1,14.1-14.1H466
		c7.7,0,14,6.3,14,14v275.9c0,1.5-0.3,3.1-0.8,4.5L305.9,248.6l-7.9,9.1l172.7,149.4c-1.5,0.6-3.2,0.9-4.8,0.9H124c-3.3,0-6,2.7-6,6
		s2.7,6,6,6h342c14.4,0,26-11.6,26-26l0,0V118C492,103.6,480.4,92,466,92L466,92z"/>
</g>
<path class="st1" d="M472.8,105.8L256,282.9L39.2,105.8c-3.7,2.1-6.2,5.7-6.9,9.8l220,179.7c2.2,1.8,5.4,1.8,7.6,0l220-179.7
	C479,111.5,476.5,107.9,472.8,105.8z"/>
</svg>
