<?xml version="1.0" encoding="utf-8"?>
<!-- Generator: Adobe Illustrator 24.0.1, SVG Export Plug-In . SVG Version: 6.00 Build 0)  -->
<svg version="1.1" id="Layer_1" xmlns="http://www.w3.org/2000/svg" xmlns:xlink="http://www.w3.org/1999/xlink" x="0px" y="0px"
	 viewBox="0 0 512 512" style="enable-background:new 0 0 512 512;" xml:space="preserve">
<style type="text/css">
	.st0{fill:#001E2B;}
	.st1{fill:#06C17E;}
</style>
<title>Server</title>
<path class="st0" d="M91,462h330c8.8,0,16-7.2,16-16V346c0-8.8-7.2-16-16-16h-34v-8h34c8.8,0,16-7.2,16-16V206c0-8.8-7.2-16-16-16
	h-34v-8h34c8.8,0,16-7.2,16-16V66c0-8.8-7.2-16-16-16H91c-8.8,0-16,7.2-16,16v100c0,8.8,7.2,16,16,16h34v8H91c-8.8,0-16,7.2-16,16
	v100c0,8.8,7.2,16,16,16h34v8H91c-8.8,0-16,7.2-16,16v100C75,454.8,82.2,462,91,462z M137,318h238v15H137V318z M137,178h238v15H137
	V178z M87,166V66c0-2.2,1.8-4,4-4h330c2.2,0,4,1.8,4,4v100c0,2.2-1.8,4-4,4h-34.3c-0.8-2.4-3.1-4-5.7-4H131c-2.5,0-4.8,1.6-5.7,4H91
	C88.8,170,87,168.2,87,166z M87,306V206c0-2.2,1.8-4,4-4h34.8c1.1,1.9,3,3,5.2,3h250c2.1,0,4.1-1.1,5.2-3H421c2.2,0,4,1.8,4,4v100
	c0,2.2-1.8,4-4,4h-34.3c-0.8-2.4-3.1-4-5.7-4H131c-2.5,0-4.8,1.6-5.7,4H91C88.8,310,87,308.2,87,306z M87,346c0-2.2,1.8-4,4-4h34.8
	c1.1,1.9,3,3,5.2,3h250c2.1,0,4.1-1.1,5.2-3H421c2.2,0,4,1.8,4,4v100c0,2.2-1.8,4-4,4H91c-2.2,0-4-1.8-4-4V346z"/>
<path class="st1" d="M325.5,419c12.7,0,23-10.3,23-23s-10.3-23-23-23s-23,10.3-23,23l0,0C302.5,408.7,312.8,419,325.5,419z
	 M325.5,385c6.1,0,11,4.9,11,11s-4.9,11-11,11s-11-4.9-11-11C314.5,389.9,319.4,385,325.5,385z"/>
<path class="st1" d="M383.5,419c12.7,0,23-10.3,23-23s-10.3-23-23-23s-23,10.3-23,23l0,0C360.5,408.7,370.8,419,383.5,419z
	 M383.5,385c6.1,0,11,4.9,11,11s-4.9,11-11,11s-11-4.9-11-11C372.5,389.9,377.4,385,383.5,385z"/>
<path class="st1" d="M111,417c3.3,0,6-2.7,6-6v-30c0-3.3-2.7-6-6-6s-6,2.7-6,6v30C105,414.3,107.7,417,111,417z"/>
<path class="st1" d="M138,417c3.3,0,6-2.7,6-6v-30c0-3.3-2.7-6-6-6s-6,2.7-6,6v30C132,414.3,134.7,417,138,417z"/>
<path class="st1" d="M164,417c3.3,0,6-2.7,6-6v-30c0-3.3-2.7-6-6-6s-6,2.7-6,6v30C158,414.3,160.7,417,164,417z"/>
<path class="st1" d="M191,417c3.3,0,6-2.7,6-6v-30c0-3.3-2.7-6-6-6s-6,2.7-6,6v30C185,414.3,187.7,417,191,417z"/>
<path class="st1" d="M217,417c3.3,0,6-2.7,6-6v-30c0-3.3-2.7-6-6-6s-6,2.7-6,6v30C211,414.3,213.7,417,217,417z"/>
<path class="st1" d="M325.5,279c12.7,0,23-10.3,23-23s-10.3-23-23-23s-23,10.3-23,23C302.5,268.7,312.8,279,325.5,279z M325.5,245
	c6.1,0,11,4.9,11,11s-4.9,11-11,11s-11-4.9-11-11C314.5,249.9,319.4,245,325.5,245z"/>
<path class="st1" d="M383.5,279c12.7,0,23-10.3,23-23s-10.3-23-23-23s-23,10.3-23,23C360.5,268.7,370.8,279,383.5,279z M383.5,245
	c6.1,0,11,4.9,11,11s-4.9,11-11,11s-11-4.9-11-11C372.5,249.9,377.4,245,383.5,245z"/>
<path class="st1" d="M111,277c3.3,0,6-2.7,6-6v-30c0-3.3-2.7-6-6-6s-6,2.7-6,6v30C105,274.3,107.7,277,111,277z"/>
<path class="st1" d="M138,277c3.3,0,6-2.7,6-6v-30c0-3.3-2.7-6-6-6s-6,2.7-6,6v30C132,274.3,134.7,277,138,277z"/>
<path class="st1" d="M164,277c3.3,0,6-2.7,6-6v-30c0-3.3-2.7-6-6-6s-6,2.7-6,6v30C158,274.3,160.7,277,164,277z"/>
<path class="st1" d="M191,277c3.3,0,6-2.7,6-6v-30c0-3.3-2.7-6-6-6s-6,2.7-6,6v30C185,274.3,187.7,277,191,277z"/>
<path class="st1" d="M217,277c3.3,0,6-2.7,6-6v-30c0-3.3-2.7-6-6-6s-6,2.7-6,6v30C211,274.3,213.7,277,217,277z"/>
<path class="st1" d="M325.5,139c12.7,0,23-10.3,23-23s-10.3-23-23-23s-23,10.3-23,23l0,0C302.5,128.7,312.8,139,325.5,139z
	 M325.5,105c6.1,0,11,4.9,11,11s-4.9,11-11,11s-11-4.9-11-11C314.5,109.9,319.4,105,325.5,105z"/>
<path class="st1" d="M383.5,139c12.7,0,23-10.3,23-23s-10.3-23-23-23s-23,10.3-23,23l0,0C360.5,128.7,370.8,139,383.5,139z
	 M383.5,105c6.1,0,11,4.9,11,11s-4.9,11-11,11s-11-4.9-11-11C372.5,109.9,377.4,105,383.5,105z"/>
<path class="st1" d="M111,137c3.3,0,6-2.7,6-6v-30c0-3.3-2.7-6-6-6s-6,2.7-6,6v30C105,134.3,107.7,137,111,137z"/>
<path class="st1" d="M138,137c3.3,0,6-2.7,6-6v-30c0-3.3-2.7-6-6-6s-6,2.7-6,6v30C132,134.3,134.7,137,138,137z"/>
<path class="st1" d="M164,137c3.3,0,6-2.7,6-6v-30c0-3.3-2.7-6-6-6s-6,2.7-6,6v30C158,134.3,160.7,137,164,137z"/>
<path class="st1" d="M191,137c3.3,0,6-2.7,6-6v-30c0-3.3-2.7-6-6-6s-6,2.7-6,6v30C185,134.3,187.7,137,191,137z"/>
<path class="st1" d="M217,137c3.3,0,6-2.7,6-6v-30c0-3.3-2.7-6-6-6s-6,2.7-6,6v30C211,134.3,213.7,137,217,137z"/>
</svg>
