<?xml version="1.0" encoding="utf-8"?>
<!-- Generator: Adobe Illustrator 24.0.1, SVG Export Plug-In . SVG Version: 6.00 Build 0)  -->
<svg version="1.1" id="Capa_1" xmlns="http://www.w3.org/2000/svg" xmlns:xlink="http://www.w3.org/1999/xlink" x="0px" y="0px"
	 viewBox="0 0 492 492" style="enable-background:new 0 0 492 492;" xml:space="preserve">
<style type="text/css">
	.st0{fill:#06C17E;}
	.st1{fill:#001E2B;}
</style>
<g>
	<path class="st0" d="M240.2,271.9v75.5c-12.6,3-21,15-19.4,27.9c1.5,12.9,12.5,22.6,25.4,22.6s23.9-9.7,25.4-22.6
		c1.5-12.9-6.8-24.9-19.4-27.9v-75.5H240.2z M255.9,381.9c-5.3,5.3-13.9,5.3-19.2,0c-5.3-5.3-5.3-13.9,0-19.2s13.9-5.3,19.2,0
		C261.2,368,261.2,376.6,255.9,381.9z"/>
	<path class="st0" d="M293.2,448.2c-7.3,7.3-9.6,18.4-5.6,27.9c4,9.6,13.3,15.8,23.7,15.8c10.4,0,19.7-6.3,23.7-15.8
		c4-9.6,1.8-20.6-5.6-27.9c-3.3-3.4-7.5-5.8-12.1-6.8V355c0-14.3-11.7-25.9-26-26c-7.7,0-14-6.2-14-14v-43.2h-12v43.2
		c0,14.3,11.7,25.9,26,26c7.7,0,14,6.2,14,14v86.4C300.7,442.6,296.6,445,293.2,448.2z M324.9,466.3c0,6.5-4.6,12.1-10.9,13.3
		s-12.7-2.1-15.2-8.1s-0.4-12.9,5-16.5s12.6-2.9,17.1,1.7C323.5,459.3,324.9,462.7,324.9,466.3L324.9,466.3z"/>
	<path class="st0" d="M175.3,355v86.4c-4.6,1-8.9,3.3-12.1,6.8c-10,10-9.9,26.2,0,36.1c10,10,26.1,10,36.1,0c10-10,10-26.1,0-36.1
		c-3.4-3.2-7.5-5.6-12.1-6.8V355c0-7.7,6.3-14,14-14c14.3,0,26-11.6,26-26v-43.2h-12v43.2c0,7.7-6.3,14-14,14
		C186.9,329.1,175.3,340.7,175.3,355z M194.8,466.3c0,6.5-4.6,12.1-10.9,13.3s-12.7-2.1-15.2-8.1c-2.5-6-0.4-12.9,5-16.5
		s12.6-2.9,17.1,1.7C193.3,459.3,194.8,462.7,194.8,466.3z"/>
	<path class="st0" d="M128.7,430.4c10.4,0,19.7-6.2,23.6-15.8c3.9-9.6,1.7-20.6-5.7-27.9c-3.8-4-8.9-6.6-14.5-7.2v-33.3
		c0.1-8,5.1-15.1,12.6-17.9l35.1-13c12.2-4.5,20.3-16.2,20.3-29.2V264h-12v22.2c0,8-5,15.1-12.5,17.9l-35.1,13
		c-12.2,4.5-20.3,16.2-20.4,29.2v34.4c-3.6,1.4-6.9,3.5-9.7,6.1c-7.3,7.3-9.5,18.4-5.5,27.9C109,424.2,118.4,430.5,128.7,430.4
		L128.7,430.4z M119.1,395.3c5.3-5.3,13.9-5.3,19.2,0c5.3,5.3,5.3,13.9,0,19.2c-5.3,5.3-13.9,5.3-19.2,0c-2.6-2.5-4-6-4-9.6
		C115.1,401.2,116.6,397.8,119.1,395.3z"/>
	<path class="st0" d="M292.2,264v22.2c0,13,8.1,24.6,20.3,29.2l35.1,13c7.5,2.8,12.5,9.9,12.6,17.9v33.3c-5.5,0.7-10.6,3.2-14.5,7.2
		c-10,10-9.9,26.2,0,36.1c10,10,26.1,10,36.1,0c10-10,10-26.1,0-36.1c-2.8-2.6-6.1-4.7-9.7-6.1v-34.4c-0.1-13-8.2-24.6-20.4-29.2
		l-35.1-13c-7.5-2.8-12.5-9.9-12.5-17.9V264H292.2z M373.4,414.5c-5.3,5.3-13.9,5.3-19.2,0c-5.3-5.3-5.3-13.9,0-19.2
		c5.3-5.3,13.9-5.3,19.2,0C378.7,400.6,378.7,409.2,373.4,414.5z"/>
</g>
<path class="st1" d="M105.8,140.4c0,77.4,63,140.4,140.4,140.4s140.4-63,140.4-140.4S323.7,0,246.2,0S105.8,63,105.8,140.4z
	 M347.1,60.8c16.5,21,26,46.5,27.4,73.1h-45.6c-0.4-17.5-3.3-34.9-8.5-51.6C330.2,76.3,339.2,69.1,347.1,60.8z M320.4,197.9
	c5.3-16.8,8.1-34.3,8.5-51.9h45.6c-1.2,26.8-10.7,52.5-27.4,73.5C339.2,211.2,330.2,203.9,320.4,197.9z M145.4,219.6
	c-16.7-21-26.2-46.8-27.4-73.6h45.6c0.4,17.6,3.2,35.1,8.5,51.9C162.3,204,153.4,211.3,145.4,219.6z M172.1,82.4
	c-5.2,16.7-8.1,34.1-8.5,51.6H118c1.3-26.7,10.9-52.3,27.4-73.3C153.4,69,162.3,76.3,172.1,82.4z M240.2,91.6
	c-18.7-0.8-36.9-5.8-53.5-14.4c10.9-27.8,29.2-49.8,53.5-63.1V91.6z M240.2,103.6V134h-64.6c0.4-15.4,2.8-30.8,7.2-45.6
	C200.7,97.5,220.2,102.7,240.2,103.6L240.2,103.6z M175.6,146h64.6v31.3c-20,0.7-39.6,5.8-57.4,14.7
	C178.4,177.1,176,161.6,175.6,146z M240.2,189.3v77.5c-24.3-13.3-42.6-35.3-53.5-63.1C203.3,195,221.6,190.1,240.2,189.3z
	 M252.2,189.2c18.7,0.8,37,5.6,53.5,14.3c-10.8,27.9-29.2,49.9-53.5,63.2V189.2z M252.2,177.2V146h64.6c-0.3,15.5-2.7,31-7.1,45.9
	C291.8,182.9,272.2,177.9,252.2,177.2z M316.9,134h-64.6v-30.4c20-0.8,39.6-6,57.5-15.1C314.1,103.3,316.5,118.6,316.9,134z
	 M252.2,91.6V14.1c24.3,13.3,42.7,35.3,53.5,63.2C289.2,85.9,270.9,90.8,252.2,91.6z M216.7,15.4c-17.6,14.1-31.3,33.1-40.4,55.6
	c-8.4-5.4-16.1-11.9-23-19.1C170.4,33.9,192.5,21.2,216.7,15.4z M153.3,228.9c6.9-7.2,14.6-13.7,23-19.1
	c9.1,22.5,22.8,41.5,40.4,55.6C192.5,259.6,170.4,247,153.3,228.9z M275.8,265.4c17.6-14.1,31.4-33.2,40.4-55.7
	c8.4,5.5,16.1,11.9,23,19.2C322.1,247,300,259.6,275.8,265.4z M339.2,51.9c-6.9,7.3-14.6,13.7-23,19.2
	c-9.1-22.5-22.8-41.6-40.4-55.7C300,21.2,322.1,33.9,339.2,51.9z"/>
</svg>
