<svg width="512" height="512" xmlns="http://www.w3.org/2000/svg" xml:space="preserve" version="1.1">

 <g>
  <title>Layer 1</title>
  <g id="svg_3" fill="#0635c9" xmlns="http://www.w3.org/2000/svg">
   <path id="svg_4" data-original="#0635c9" fill="#001e2b" d="m90.311,227.083a17.545,17.545 0 0 1 7.9,29.6a29.518,29.518 0 0 0 28.6,49.6a17.5,17.5 0 0 1 21.591,21.67a29.064,29.064 0 0 0 9.9,31.146l-29.633,109.846a9.894,9.894 0 0 0 13.938,11.347l42.04,-20.624l26.289,38.06a9.77,9.77 0 0 0 8.088,4.272a10.181,10.181 0 0 0 1.788,-0.159a9.788,9.788 0 0 0 7.8,-7.12l31.127,-101.771l31.839,100.4a9.784,9.784 0 0 0 7.792,7.084a10.078,10.078 0 0 0 1.788,0.159a9.773,9.773 0 0 0 8.089,-4.276l26.289,-38.059l42.04,20.623a9.893,9.893 0 0 0 13.937,-11.347c-0.025,-0.1 -0.052,-0.193 -0.082,-0.289l-34.56,-111.055a29.079,29.079 0 0 0 6.73,-28.232a17.5,17.5 0 0 1 21.591,-21.67a29.518,29.518 0 0 0 28.6,-49.6a17.545,17.545 0 0 1 7.9,-29.6a29.54,29.54 0 0 0 0,-57.283a17.545,17.545 0 0 1 -7.9,-29.6a29.518,29.518 0 0 0 -28.6,-49.6a17.5,17.5 0 0 1 -21.592,-21.68a29.475,29.475 0 0 0 -49.519,-28.633a17.448,17.448 0 0 1 -29.5,-7.932a29.454,29.454 0 0 0 -57.174,0a17.448,17.448 0 0 1 -29.5,7.932a29.475,29.475 0 0 0 -49.507,28.633a17.5,17.5 0 0 1 -21.592,21.675a29.518,29.518 0 0 0 -28.6,49.6a17.546,17.546 0 0 1 -7.9,29.6a29.54,29.54 0 0 0 0,57.283l0.003,0zm128.02,260.237l-24.843,-35.966a9.834,9.834 0 0 0 -12.5,-3.259l-39.5,19.376l27.736,-102.816a28.964,28.964 0 0 0 28.686,-8.064a17.449,17.449 0 0 1 29.5,7.932a29,29 0 0 0 21.87,21.6l-30.949,101.197zm120.862,-40.627a9.955,9.955 0 0 0 -12.5,3.259l-24.873,36.01l-32.414,-102.233a29.152,29.152 0 0 0 15.181,-19.206a17.448,17.448 0 0 1 29.5,-7.932a28.954,28.954 0 0 0 32.446,6.747l31.935,102.619l-39.275,-19.264zm-245.963,-265.253a29.546,29.546 0 0 0 13.337,-49.856c-7.257,-7.038 -6.133,-15.927 -2.965,-21.4c3.148,-5.442 10.25,-10.816 19.9,-8.051a29.5,29.5 0 0 0 36.436,-36.5a17.476,17.476 0 0 1 29.345,-17.01a29.447,29.447 0 0 0 49.771,-13.358a17.455,17.455 0 0 1 33.89,0a29.447,29.447 0 0 0 49.771,13.358a17.476,17.476 0 0 1 29.345,17.01a29.5,29.5 0 0 0 36.436,36.5c9.652,-2.763 16.753,2.609 19.9,8.051c3.168,5.474 4.292,14.363 -2.965,21.4a29.546,29.546 0 0 0 13.339,49.856c9.765,2.45 13.23,10.69 13.23,17s-3.465,14.552 -13.23,17a29.546,29.546 0 0 0 -13.337,49.86c7.257,7.037 6.133,15.927 2.965,21.4c-3.148,5.443 -10.253,10.815 -19.9,8.051a29.5,29.5 0 0 0 -36.436,36.5a17.476,17.476 0 0 1 -29.345,17.01a29.447,29.447 0 0 0 -49.771,13.358a17.455,17.455 0 0 1 -33.89,0a29.131,29.131 0 0 0 -20.983,-21.36a30.045,30.045 0 0 0 -7.77,-1.032a29.049,29.049 0 0 0 -21.018,9.034a17.476,17.476 0 0 1 -29.345,-17.01a29.5,29.5 0 0 0 -36.436,-36.5c-9.651,2.767 -16.753,-2.609 -19.9,-8.051c-3.168,-5.474 -4.292,-14.364 2.965,-21.4a29.546,29.546 0 0 0 -13.339,-49.857c-9.765,-2.45 -13.23,-10.69 -13.23,-17s3.465,-14.553 13.23,-17.003z"/>
   <path id="svg_5" data-original="#0635c9" fill="#001e2b" d="m223.711,112.154a6,6 0 0 0 1.935,-0.321c2.5,-0.853 5.079,-1.608 7.653,-2.244a6,6 0 0 0 -2.88,-11.65c-2.905,0.719 -5.813,1.571 -8.641,2.534a6,6 0 0 0 1.933,11.681z"/>
   <path id="svg_6" data-original="#0635c9" fill="#001e2b" d="m162.929,198.817a91.939,91.939 0 0 1 47.939,-80.473a6,6 0 1 0 -5.773,-10.519a103.935,103.935 0 0 0 -54.166,90.992a6,6 0 0 0 12,0z"/>
   <path id="svg_7" data-original="#0635c9" fill="#001e2b" d="m145.372,245.778a6.017,6.017 0 0 0 2.793,-7.418a115.128,115.128 0 1 1 20.164,34.574a6,6 0 0 0 -7.4,-1.449a6,6 0 0 0 -1.777,9.169a126.524,126.524 0 0 0 96.783,45c69.905,0 126.778,-56.9 126.778,-126.84s-56.879,-126.837 -126.784,-126.837s-126.778,56.9 -126.778,126.84a126.257,126.257 0 0 0 7.774,43.734a6,6 0 0 0 8.447,3.227z"/>
  </g>
  <path id="svg_8" data-original="#1ae5be" fill="#07c17e" d="m177.437,198.031l66.417,81.359a13.435,13.435 0 0 0 10.354,5.116a13.434,13.434 0 0 0 10.351,-5.11l66.3,-81.128a17.867,17.867 0 0 0 0.31,-21.678l-24.814,-32.453a13.455,13.455 0 0 0 -10.662,-5.5l-84.893,0a13.476,13.476 0 0 0 -10.966,5.915l-23.009,32.222a18.019,18.019 0 0 0 0.61,21.26l0.002,-0.003zm44.02,-4.562l16.435,59.642l-48.692,-59.642l32.257,0zm97.824,0l-47.927,58.65l16.486,-58.65l31.441,0zm-43.905,0l-20.942,74.5l-20.531,-74.5l41.473,0zm-39.852,-12l14.419,-30.835l9.457,0l14.42,30.835l-38.296,0zm61.3,-30.043l22.972,30.043l-32.76,0c-0.074,-0.173 -0.136,-0.351 -0.215,-0.521l-14.175,-30.314l23.044,0a1.754,1.754 0 0 1 1.129,0.792l0.005,0zm-87.217,0.1a1.838,1.838 0 0 1 1.2,-0.888l25.9,0l-14.2,30.375c-0.07,0.15 -0.124,0.308 -0.19,0.46l-34.1,0l21.39,-29.947z" xmlns="http://www.w3.org/2000/svg"/>
 </g>
</svg>