<?xml version="1.0" encoding="utf-8"?>
<!-- Generator: Adobe Illustrator 24.0.1, SVG Export Plug-In . SVG Version: 6.00 Build 0)  -->
<svg version="1.1" id="Layer_1" xmlns="http://www.w3.org/2000/svg" xmlns:xlink="http://www.w3.org/1999/xlink" x="0px" y="0px"
	 viewBox="0 0 512 512" style="enable-background:new 0 0 512 512;" xml:space="preserve">
<style type="text/css">
	.st0{fill:#001E2B;}
	.st1{fill:#06C17E;}
</style>
<path class="st0" d="M119.1,123.7c0.2,0,0.3,0,0.5,0c3.1,0,5.7-2.4,6-5.5c0.1-1.9,0.4-3.7,0.6-5.6c0.5-3.3-1.8-6.3-5.1-6.8
	s-6.3,1.8-6.8,5.1c-0.3,2.1-0.5,4.2-0.7,6.3C113.3,120.5,115.8,123.4,119.1,123.7z"/>
<g>
	<path class="st1" d="M200.3,507c13.7,0,24.8-11,24.9-24.7c-0.2-11.1-7.5-20.8-18.2-23.9v-65.3c-0.1-8.7,4.7-16.8,12.4-21
		c11.6-6.3,18.8-18.4,18.7-31.6l-0.3-52.5l-12,0l0.2,52.5c0.1,8.7-4.7,16.8-12.4,21c-11.6,6.3-18.7,18.4-18.7,31.6v65.1
		c-13.3,3-21.7,16.2-18.7,29.6C178.9,498.9,188.8,506.9,200.3,507z M200.3,469.5c7,0,12.7,5.7,12.7,12.7c0,7-5.7,12.7-12.7,12.7
		c-7,0-12.7-5.7-12.7-12.7c0,0,0,0,0,0C187.6,475.2,193.3,469.5,200.3,469.5z"/>
	<path class="st1" d="M119.9,440.9c13.7,0,24.7-11.1,24.8-24.7c0.1-11.4-7.6-21.3-18.7-24v-17c0-12.5,8.3-23.4,20.2-27
		c17-5.1,28.7-20.7,28.8-38.5V288h-12v21.7c0,12.5-8.2,23.4-20.2,27c-17,5.1-28.7,20.7-28.8,38.5v17c-13.3,3.3-21.3,16.7-18.1,30
		C98.7,433.1,108.6,440.9,119.9,440.9L119.9,440.9z M119.9,403.4c7,0,12.7,5.7,12.7,12.7c0,7-5.7,12.7-12.7,12.7
		c-7,0-12.7-5.7-12.7-12.7c0,0,0,0,0,0C107.2,409.1,112.9,403.4,119.9,403.4L119.9,403.4z"/>
	<path class="st1" d="M374.2,361.3c6.9,1.5,11.8,7.7,11.8,14.7v39.4c-11.1,2.7-18.8,12.6-18.7,24c0,13.7,11.1,24.7,24.7,24.7
		c13.7,0,24.7-11.1,24.7-24.7c0-11.4-7.7-21.3-18.8-24V376c0-12.7-8.8-23.7-21.2-26.4c-6.9-1.5-11.8-7.7-11.8-14.7V288h-12v46.9
		C353,347.5,361.8,358.5,374.2,361.3z M404.8,439.4c0,7-5.7,12.7-12.7,12.7c-7,0-12.7-5.7-12.7-12.7c0-7,5.7-12.7,12.7-12.7
		c0,0,0,0,0,0C399.1,426.7,404.8,432.4,404.8,439.4L404.8,439.4z"/>
	<path class="st1" d="M299.2,331.7c8.3,3.4,13.7,11.4,13.8,20.4v19.6c-13.2,3.3-21.2,16.7-17.9,29.9c3.3,13.2,16.7,21.2,29.9,17.9
		c13.2-3.3,21.2-16.7,17.9-29.9c-2.2-8.8-9.1-15.7-17.9-17.9v-19.6c-0.1-13.8-8.4-26.2-21.2-31.5c-8.3-3.4-13.7-11.4-13.8-20.4V288
		h-12v12.3C278.1,314.1,286.4,326.5,299.2,331.7z M331.6,395.7c0,7-5.7,12.7-12.7,12.7c-7,0-12.7-5.7-12.7-12.7
		c0-7,5.7-12.7,12.7-12.7c0,0,0,0,0,0C325.9,383,331.6,388.7,331.6,395.7z"/>
</g>
<path class="st0" d="M124.9,99.4c2.5,0,4.8-1.6,5.6-3.9c12.4-33.4,44.3-55.5,79.9-55.5c6.5,0,13,0.7,19.3,2.2
	c3.2,0.7,6.4-1.3,7.2-4.6c0.7-3.2-1.3-6.3-4.4-7.1c-7.2-1.7-14.6-2.5-22.1-2.5c-40.6,0-76.9,25.3-91.1,63.4
	c-1.1,3.1,0.4,6.6,3.5,7.7C123.5,99.2,124.2,99.4,124.9,99.4L124.9,99.4z"/>
<path class="st0" d="M125.7,294h260.6c48.3,0,87.5-39.2,87.4-87.5c0-17.2-5.1-33.9-14.5-48.2c-11.9-18.1-30.1-31-51-36.4
	c-4.5-48.1-47-83.5-95.1-79c-4.4,0.4-8.8,1.2-13.2,2.2C277.2,19.6,244.6,5,210.4,5h0c-66.3,0.1-119.9,53.8-120,120.1
	c0,0.5,0,1,0,1.4c-14.8,6.5-27.5,17-36.7,30.3c-0.4,0.6-0.9,1.3-1.3,1.9c-1.8,2.8-1,6.5,1.7,8.3c1,0.6,2.1,1,3.3,1h0.1
	c2,0,3.9-1,5-2.7c8.8-13.4,21.5-23.7,36.4-29.5c2.3-0.9,3.8-3.2,3.7-5.7c-0.1-1.9-0.1-3.5-0.1-5.1c0-59.6,48.4-107.9,108-108h0
	c32,0,62.4,14.2,82.9,38.7c1.5,1.8,4,2.6,6.3,1.9c39.9-11.9,81.9,10.8,93.9,50.7c1.8,6,2.8,12.3,3.1,18.6c0.1,2.8,2.1,5.1,4.8,5.6
	c40.8,8.3,67.2,48.2,58.9,89c-7.2,35.1-38,60.4-73.9,60.4H125.7c-41.6,0-75.5-34.1-75.4-75.7c0-0.7,0-1.4,0-2.1
	c0.1-3.3-2.5-6.1-5.8-6.2c-3.3-0.1-6.1,2.5-6.2,5.8l0,0c0,0.8,0,1.6,0,2.4C38.2,254.5,77.4,294,125.7,294L125.7,294z"/>
</svg>
