<?xml version="1.0" encoding="utf-8"?>
<!-- Generator: Adobe Illustrator 24.0.1, SVG Export Plug-In . SVG Version: 6.00 Build 0)  -->
<svg version="1.1" id="Layer_1" xmlns="http://www.w3.org/2000/svg" xmlns:xlink="http://www.w3.org/1999/xlink" x="0px" y="0px"
	 viewBox="0 0 512 512" style="enable-background:new 0 0 512 512;" xml:space="preserve">
<style type="text/css">
	.st0{fill:#001E2B;}
	.st1{fill:#06C17E;}
</style>
<path class="st0" d="M453,324.8c0-11.5-5.6-22.2-14.9-28.9c15.2-9.8,19.5-30.1,9.7-45.2c-6-9.3-16.4-14.9-27.5-14.9H299.6
	c-8.2,0-15.1-6.2-16-14.3c-1.7-16.1,0.3-32.3,6-47.4c5.9-15.6,8.8-32,8.8-48.7v-9.8c0-29.9-24.3-54.1-54.1-54.2
	c-3,0-5.5,2.2-5.9,5.1l-5.4,35.4c-5.7,36.8-20,71.7-41.7,102c-12.2,16.8-31.7,26.7-52.4,26.7h-19.6v-31.5c0-3.3-2.7-6-6-6H11
	c-3.3,0-6,2.7-6,6v261.6c0,3.3,2.7,6,6,6l0,0h102.2c3.3,0,6-2.7,6-6l0,0v-27.2h17.6c28.5,0,56.5,8,80.8,23
	c26.4,16.4,56.2,17.7,87.1,17.7h100.7c19,0,34.4-15.4,34.4-34.4c0-9.1-3.6-17.9-10.1-24.4c18-6.2,27.6-25.9,21.4-43.9
	c-2.5-7.2-7.2-13.3-13.5-17.5C447.2,347.4,452.9,336.5,453,324.8L453,324.8z M107.2,454.7H17V205.1h90.2V454.7z M417.5,348.2h-39.3
	c-3.3,0-6,2.7-6,6s2.7,6,6,6h40.2c12.5,0,22.6,10.1,22.6,22.6s-10.1,22.6-22.6,22.6l0,0h-58c-3.3,0-6,2.7-6,6s2.7,6,6,6h45
	c12.4,0,22.4,10,22.4,22.4c0,12.4-10,22.4-22.4,22.4H304.7c-29,0-57.1-1.2-80.8-15.9c-26.1-16.2-56.3-24.8-87.1-24.8h-17.6V242.6
	h19.6c24.6,0,47.7-11.8,62.2-31.7c22.8-31.8,37.8-68.5,43.8-107.2l4.6-30c21.1,2.6,37,20.5,37,41.8v9.8c0,15.2-2.7,30.2-8.1,44.4
	c-6.3,16.9-8.6,35-6.7,52.9c1.5,14.2,13.6,25,27.9,25h120.6c11.4,0.1,20.7,9.4,20.6,20.9c-0.1,11.3-9.2,20.5-20.6,20.6l-42.1,0.1
	c-3.3,0-6,2.7-6,6s2.7,6,6,6h39.3c13,0.1,23.4,10.7,23.3,23.6C440.7,337.7,430.3,348.1,417.5,348.2L417.5,348.2z"/>
<path class="st1" d="M505.6,84.2c-5.6-27.9-25.9-46-51.6-46c-12.9,0-26.7,4.7-40.2,13.8c-13.7-9.4-27.3-14.2-40.5-14.2
	c-25.9,0-46.1,18.2-51.4,46.5c-7.7,40,16.4,93,87.5,121.2c0.1,0,0.2,0.1,0.3,0.1c2.6,1,5.5,1,8.2,0c0.1,0,0.2-0.1,0.4-0.1
	C489.2,176.6,513.3,123.8,505.6,84.2C505.6,84.2,505.6,84.2,505.6,84.2z M413.8,194.2l-0.1,0l-0.2,0c-64.6-25.7-86.7-72.6-80-107.7
	c4.3-22.6,19.5-36.7,39.6-36.7c11.7,0,24.1,4.8,36.9,14.4c2.1,1.6,5,1.6,7.1,0c12.6-9.1,25.3-14,36.8-14c20.1,0,35.3,13.9,39.9,36.3
	C503.2,134.7,460.4,175.3,413.8,194.2L413.8,194.2z"/>
</svg>
