<?xml version="1.0" encoding="utf-8"?>
<!-- Generator: Adobe Illustrator 24.0.1, SVG Export Plug-In . SVG Version: 6.00 Build 0)  -->
<svg version="1.1" id="Capa_1" xmlns="http://www.w3.org/2000/svg" xmlns:xlink="http://www.w3.org/1999/xlink" x="0px" y="0px"
	 viewBox="0 0 463 463" style="enable-background:new 0 0 463 463;" xml:space="preserve">
<style type="text/css">
	.st0{fill:#001E2B;}
	.st1{fill:#06C17E;}
</style>
<g>
	<path class="st0" d="M431,0H31C16.6,0,5,11.6,5,26v411c0,14.4,11.6,26,26,26h400c14.4,0,26-11.6,26-26V26C457,11.6,445.4,0,431,0z
		 M31,12h400c7.7,0,14,6.3,14,14v344.7H17V26C17,18.3,23.3,12,31,12z M431,451H31c-7.7,0-14-6.3-14-14v-54.3h428V437
		C445,444.7,438.7,451,431,451z"/>
	<path class="st0" d="M70.9,394.4c-12.4,0-22.5,10.1-22.5,22.5c0,12.4,10.1,22.5,22.5,22.5s22.5-10.1,22.5-22.5
		C93.4,404.4,83.4,394.4,70.9,394.4z M70.9,427.4c-5.8,0-10.5-4.7-10.5-10.5c0-5.8,4.7-10.5,10.5-10.5c5.8,0,10.5,4.7,10.5,10.5
		C81.4,422.6,76.7,427.3,70.9,427.4z"/>
	<path class="st0" d="M151,394.9c-12.4,0-22.5,10.1-22.5,22.5c0,12.4,10.1,22.5,22.5,22.5c12.4,0,22.5-10.1,22.5-22.5
		C173.5,405,163.4,394.9,151,394.9z M151,427.9c-5.8,0-10.5-4.7-10.5-10.5c0-5.8,4.7-10.5,10.5-10.5c5.8,0,10.5,4.7,10.5,10.5
		C161.5,423.2,156.8,427.9,151,427.9z"/>
	<path class="st0" d="M231,394.9c-12.4,0-22.5,10.1-22.5,22.5c0,12.4,10.1,22.5,22.5,22.5s22.5-10.1,22.5-22.5
		C253.5,405,243.4,394.9,231,394.9z M231,427.9c-5.8,0-10.5-4.7-10.5-10.5c0-5.8,4.7-10.5,10.5-10.5s10.5,4.7,10.5,10.5
		C241.5,423.2,236.8,427.9,231,427.9z"/>
	<path class="st0" d="M311,394.9c-12.4,0-22.5,10.1-22.5,22.5c0,12.4,10.1,22.5,22.5,22.5c12.4,0,22.5-10.1,22.5-22.5
		C333.5,405,323.4,394.9,311,394.9z M311,427.9c-5.8,0-10.5-4.7-10.5-10.5c0-5.8,4.7-10.5,10.5-10.5c5.8,0,10.5,4.7,10.5,10.5
		C321.5,423.2,316.8,427.9,311,427.9z"/>
	<path class="st0" d="M391.1,394.9c-12.4,0-22.5,10.1-22.5,22.5c0,12.4,10.1,22.5,22.5,22.5s22.5-10.1,22.5-22.5
		C413.5,405,403.5,394.9,391.1,394.9z M391.1,427.9c-5.8,0-10.5-4.7-10.5-10.5c0-5.8,4.7-10.5,10.5-10.5c5.8,0,10.5,4.7,10.5,10.5
		C401.5,423.2,396.8,427.9,391.1,427.9z"/>
</g>
<path class="st1" d="M267.9,133.8l0.4,196.2c0,3.3,2.7,6,6,6h0c3.3,0,6-2.7,6-6l-0.4-196.2h27.4c3.3,0,6-2.7,6-6v-33
	c0-3.3-2.7-6-6-6h-26.4l-0.6-37.3c-0.1-3.3-2.7-5.9-6-5.9h-0.1c-3.3,0.1-6,2.8-5.9,6.1l0.6,37.1h-27.6c-3.3,0-6,2.7-6,6v33
	c0,3.3,2.7,6,6,6H267.9z M247.3,100.8h54v21h-27.2c-0.1,0-0.1,0-0.2,0c-0.1,0-0.1,0-0.2,0h-26.4V100.8z"/>
<path class="st1" d="M220.7,157.8h-26.3l-0.7-106.2c0-3.3-2.7-6-6-6h0c-3.3,0-6,2.7-6,6l0.7,106.1h-27.7c-3.3,0-6,2.7-6,6v33
	c0,3.3,2.7,6,6,6h26.6l0.4,127.2c0,3.3,2.7,6,6,6h0c3.3,0,6-2.7,6-6l-0.4-127.2h27.4c3.3,0,6-2.7,6-6v-33
	C226.7,160.5,224,157.8,220.7,157.8z M214.7,190.8h-27.2c-0.1,0-0.1,0-0.2,0h0c-0.1,0-0.1,0-0.2,0h-26.4v-21h54V190.8z"/>
<path class="st1" d="M134.2,234.8h-26.3l-0.7-183.2c0-3.3-2.7-6-6-6h0c-3.3,0-6,2.7-6,6l0.7,183.2H68.2c-3.3,0-6,2.7-6,6v33
	c0,3.3,2.7,6,6,6h26.7l0.3,50.2c0,3.3,2.7,6,6,6h0c3.3,0,6-2.7,6-6l-0.3-50.1h27.3c3.3,0,6-2.7,6-6v-33
	C140.2,237.5,137.5,234.8,134.2,234.8z M128.2,267.8H101c-0.1,0-0.1,0-0.2,0h0c-0.1,0-0.1,0-0.2,0H74.2v-21h54V267.8z"/>
<path class="st1" d="M321.8,255.8v33c0,3.3,2.7,6,6,6h26.7l0.3,35.2c0,3.3,2.7,5.9,6,5.9h0.1c3.3,0,6-2.7,5.9-6.1l-0.3-35.1h27.3
	c3.3,0,6-2.7,6-6v-33c0-3.3-2.7-6-6-6h-26.3l-0.7-198.2c0-3.3-2.7-6-6-6h0c-3.3,0-6,2.7-6,6l0.7,198.2h-27.7
	C324.5,249.8,321.8,252.5,321.8,255.8z M333.8,261.8h54v21h-27.2c-0.1,0-0.1,0-0.2,0h-0.1c-0.1,0-0.1,0-0.2,0h-26.4V261.8z"/>
</svg>
