<?xml version="1.0" encoding="utf-8"?>
<!-- Generator: Adobe Illustrator 24.0.1, SVG Export Plug-In . SVG Version: 6.00 Build 0)  -->
<svg version="1.1" id="Layer_1" xmlns="http://www.w3.org/2000/svg" xmlns:xlink="http://www.w3.org/1999/xlink" x="0px" y="0px"
	 viewBox="0 0 512 512" style="enable-background:new 0 0 512 512;" xml:space="preserve">
<style type="text/css">
	.st0{fill:#001E2B;}
	.st1{fill:#06C17E;}
</style>
<path class="st0" d="M85.3,52L85.3,52c-7,3.8-10.2,7-11.5,8.5c-2.1,2.6-1.7,6.3,0.8,8.4c0,0,0,0,0,0l0,0c2.6,2.1,6.3,1.7,8.4-0.8
	l0,0c0.7-0.9,3.2-3,7.8-5.6c3-1.5,4.2-5.1,2.7-8c-1.5-3-5.1-4.2-8-2.7C85.5,51.9,85.4,52,85.3,52z"/>
<path class="st0" d="M171.2,35.1c-22.9,0-44.7,2.8-63.1,8c-3.2,0.9-5,4.2-4.1,7.4c0.9,3.2,4.2,5,7.4,4.1c17.1-4.9,38.3-7.5,59.8-7.5
	c3.3,0,6-2.7,6-6S174.5,35.1,171.2,35.1z"/>
<path class="st0" d="M426.4,250.7c-23-9.2-53.4-14.2-85.6-14.2c-15.3,0-30.5,1.2-45.6,3.6V63.3c0-15.2-13.6-29-38.3-38.9
	c-23-9.2-53.4-14.2-85.6-14.2s-62.7,5.1-85.6,14.2c-24.7,9.9-38.3,23.7-38.3,38.9v283c0,14.1,11.9,27.2,33.5,36.9l4.9-11
	c-16.8-7.5-26.4-17-26.4-26v-23.6c7.4,6.7,18.1,12.6,31.7,17.4l4-11.3c-22.4-7.9-35.7-19-35.7-29.7v-23.8
	c12.4,11.2,33.8,20.3,61.7,25.4l2.2-11.8c-38.2-7-63.9-21.9-63.9-37v-23.7c6.4,5.8,15.2,11,26.3,15.5c23,9.2,53.4,14.2,85.6,14.2
	s62.7-5.1,85.6-14.2c11.1-4.4,19.9-9.7,26.3-15.5v14.1c-24.2,5.3-43.9,13.8-55.3,24.6l8.3,8.7c17.1-16.3,59.2-27.2,104.6-27.2
	c30.8,0,59.6,4.8,81.2,13.4c19.6,7.8,30.8,18,30.8,27.8s-11.2,20-30.8,27.8c-21.6,8.6-50.4,13.4-81.2,13.4
	c-12.3,0.1-24.7-0.8-36.9-2.4l-1.6,11.9c12.6,1.7,25.2,2.5,37.9,2.6c32.2,0,63.3-5.1,86.3-14.2c11.1-4.4,19.9-9.7,26.3-15.5v23.7
	c0,9.8-11.2,20-30.8,27.8c-21.6,8.6-50.4,13.4-81.2,13.4c-9,0-18.2-0.4-27.2-1.3l-1.2,11.9c9.2,0.9,18.8,1.4,28,1.4
	c32.2,0,63-5.1,86-14.2c11.1-4.4,19.9-9.7,26.3-15.5V384c0,9.8-11.2,20-30.8,27.8c-21.6,8.6-50.4,13.4-81.2,13.4
	c-12.4,0.1-24.9-0.8-37.2-2.5l-1.7,11.9c12.6,1.7,25.4,2.6,38.1,2.6c32.2,0,63.4-5.1,86.3-14.2c11.1-4.4,19.9-9.7,26.3-15.5v23.7
	c0,9.8-11.2,20-30.8,27.8c-21.6,8.6-50.4,13.4-81.2,13.4c-24.4,0-47.7-3-67.4-8.7l-3.3,11.5c20.7,6,45.2,9.2,70.7,9.2
	c32.2,0,62.7-5.1,85.6-14.2c24.7-9.9,38.3-23.7,38.3-38.9V289.6C464.7,274.4,451.1,260.6,426.4,250.7z M283.2,204.8
	c0,9.8-11.2,20-30.8,27.8c-21.6,8.6-50.4,13.4-81.2,13.4s-59.6-4.8-81.2-13.4c-19.6-7.8-30.8-17.9-30.8-27.8v-23.7
	c6.4,5.8,15.2,11,26.3,15.5c23,9.2,53.4,14.2,85.6,14.2s62.7-5.1,85.6-14.2c11.1-4.4,19.9-9.7,26.3-15.5L283.2,204.8z M283.2,110.5
	c0,9.8-11.2,20-30.8,27.8c-21.6,8.6-50.4,13.4-81.2,13.4c-15.2,0-30.5-1.2-45.5-3.7c-3.2-0.6-6.3,1.6-6.9,4.8
	c-0.1,0.3-0.1,0.7-0.1,1v0.1c0,2.9,2.1,5.4,4.9,5.8c15.7,2.6,31.6,3.9,47.5,3.9c32.2,0,62.7-5.1,85.6-14.2
	c11.1-4.4,19.9-9.7,26.3-15.5v23.7c0,9.8-11.2,20-30.8,27.8c-21.6,8.6-50.4,13.4-81.2,13.4s-59.6-4.8-81.2-13.4
	c-19.6-7.8-30.8-18-30.8-27.8V134c3.8,3.4,8,6.4,12.5,8.9c2.8,1.7,6.5,0.7,8.2-2.1c1.7-2.8,0.8-6.4-2-8.2c-0.1-0.1-0.2-0.1-0.3-0.2
	c-11.8-6.7-18.4-14.4-18.4-21.9V86.8c6.4,5.8,15.2,11,26.3,15.5c23,9.2,53.4,14.2,85.6,14.2s62.7-5.1,85.6-14.2
	c11.1-4.4,19.9-9.7,26.3-15.5L283.2,110.5z M252.4,91.1c-21.6,8.6-50.4,13.4-81.2,13.4s-59.6-4.8-81.2-13.4
	c-19.6-7.8-30.8-18-30.8-27.8s11.2-20,30.8-27.8c21.6-8.6,50.4-13.4,81.2-13.4s59.6,4.8,81.2,13.4c19.6,7.8,30.8,18,30.8,27.8
	S271.9,83.3,252.4,91.1z"/>
<path class="st1" d="M202.3,292.9c-48.6-2.3-89.9,35.2-92.2,83.9c-2.3,48.6,35.2,89.9,83.9,92.2c15,0.7,30-2.4,43.5-9.2
	c3-1.5,4.1-5.1,2.6-8.1c-0.3-0.6-0.8-1.2-1.3-1.7l0,0c-1.9-1.7-4.6-2.1-6.8-0.9c-37.7,18.7-83.3,3.3-102-34.4s-3.3-83.3,34.4-102
	c37.7-18.7,83.3-3.3,102,34.4c10.9,22,10.5,48-1,69.7c-1.3,2.3-0.8,5.3,1.1,7.1l0.3,0.2c2.4,2.2,6.1,2.1,8.2-0.3
	c0.3-0.4,0.6-0.8,0.9-1.2c23-42.9,6.9-96.3-36-119.3C228.3,297.1,215.5,293.5,202.3,292.9z"/>
<path class="st1" d="M198.2,260c-66.8,0-121,54.2-121,121s54.2,121,121,121c66.8,0,121-54.2,121-121C319.1,314.1,265,260,198.2,260z
	 M300.2,386.9h6.8c-1.3,24.7-11.1,48.2-27.7,66.6l-4.8-4.8c-2.3-2.3-6.1-2.3-8.5,0c-2.3,2.3-2.3,6.1,0,8.5l4.8,4.8
	c-18.4,16.6-41.9,26.3-66.6,27.7v-6.8c0-3.3-2.7-6-6-6s-6,2.7-6,6v6.8c-24.7-1.3-48.2-11.1-66.6-27.7l4.8-4.8c2.3-2.3,2.3-6.1,0-8.5
	c-2.3-2.3-6.1-2.3-8.5,0l-4.8,4.8c-16.6-18.4-26.3-41.9-27.7-66.6h6.8c3.3,0,6-2.7,6-6s-2.7-6-6-6h-6.8
	c1.3-24.7,11.1-48.2,27.7-66.6l4.8,4.8c2.4,2.3,6.2,2.3,8.5-0.1c2.3-2.3,2.3-6.1,0-8.4l-4.8-4.8c18.4-16.6,41.9-26.3,66.6-27.7v6.8
	c0,3.3,2.7,6,6,6s6-2.7,6-6v-6.8c24.7,1.3,48.2,11.1,66.6,27.7l-4.8,4.8c-2.3,2.3-2.3,6.1,0,8.5c2.3,2.3,6.1,2.3,8.5,0l0,0l4.8-4.8
	c16.6,18.4,26.3,41.9,27.7,66.6h-6.8c-3.3,0-6,2.7-6,6S296.9,386.9,300.2,386.9L300.2,386.9z"/>
<path class="st1" d="M213.9,345h15.8c3.3,0,6-2.7,6-6s-2.7-6-6-6h-15.8c-20.8,0-39.2,13.4-45.6,33.1h-11.9c-3.3,0-6,2.7-6,6
	s2.7,6,6,6h9.6c-0.1,1-0.1,1.9-0.1,2.9s0,1.9,0.1,2.9h-9.6c-3.3,0-6,2.7-6,6s2.7,6,6,6h11.9c6.5,19.7,24.9,33.1,45.6,33.1h15.8
	c3.3,0,6-2.7,6-6s-2.7-6-6-6h-15.8c-14.1,0-26.9-8.3-32.8-21.1h37.4c3.3,0,6-2.7,6-6s-2.7-6-6-6H178c-0.1-1-0.1-1.9-0.1-2.9
	s0.1-1.9,0.1-2.9h40.5c3.3,0,6-2.7,6-6s-2.7-6-6-6h-37.4C187,353.3,199.8,345,213.9,345z"/>
</svg>
