<svg width="512" height="512" xmlns="http://www.w3.org/2000/svg" data-name="Layer 1">
 <title>Protection</title>

 <g>
  <title>Layer 1</title>
  <path id="svg_5" fill="#001e2b" d="m344.793,147.539l-131.84,-70.245a6.005,6.005 0 0 0 -5.712,0.033l-128.15,70.245a5.978,5.978 0 0 0 -3.091,5.262l0,81.052a189.064,189.064 0 0 0 82.586,156.232l6.78,-9.91a177.088,177.088 0 0 1 -77.366,-146.322l0,-77.5l122.215,-66.977l125.785,67.027l0,75.626c0,4.428 -0.2,8.906 -0.526,13.308l11.981,0.9c0.352,-4.7 0.545,-9.479 0.545,-14.2l0,-79.236a6.026,6.026 0 0 0 -3.207,-5.295z"/>
  <path id="svg_6" fill="#001e2b" d="m376.734,124.679l-164.2,-87.474a6.042,6.042 0 0 0 -5.728,0.033l-159.65,87.474a6.039,6.039 0 0 0 -3.156,5.262l0,100.926a234.233,234.233 0 0 0 114.864,201.356l6.136,-10.32a222.194,222.194 0 0 1 -109,-191.036l0,-97.373l153.768,-84.207l158.232,84.255l0,95.057c0,5.551 -0.3,11.164 -0.71,16.682l12.01,0.9c0.436,-5.816 0.7,-11.731 0.7,-17.579l0,-98.661a6.082,6.082 0 0 0 -3.266,-5.295z"/>
  <path id="svg_7" fill="#07c17e" d="m371.513,397.5a20.572,20.572 0 1 0 20.571,20.571a20.595,20.595 0 0 0 -20.571,-20.571zm0,29.143a8.572,8.572 0 1 1 8.571,-8.572a8.581,8.581 0 0 1 -8.571,8.572z"/>
  <path id="svg_8" fill="#07c17e" d="m421.228,397.5a20.572,20.572 0 1 0 20.572,20.571a20.6,20.6 0 0 0 -20.572,-20.571zm0,29.143a8.572,8.572 0 1 1 8.571,-8.572a8.581,8.581 0 0 1 -8.571,8.572z"/>
  <path id="svg_9" fill="#07c17e" d="m188,399.214a6,6 0 0 0 -6,6l0,25.715a6,6 0 0 0 12,0l0,-25.715a6,6 0 0 0 -6,-6z"/>
  <path id="svg_10" fill="#07c17e" d="m211,399.214a6,6 0 0 0 -6,6l0,25.715a6,6 0 0 0 12,0l0,-25.715a6,6 0 0 0 -6,-6z"/>
  <path id="svg_11" fill="#07c17e" d="m233,399.214a6,6 0 0 0 -6,6l0,25.715a6,6 0 0 0 12,0l0,-25.715a6,6 0 0 0 -6,-6z"/>
  <path id="svg_12" fill="#07c17e" d="m256,399.214a6,6 0 0 0 -6,6l0,25.715a6,6 0 0 0 12,0l0,-25.715a6,6 0 0 0 -6,-6z"/>
  <path id="svg_13" fill="#07c17e" d="m279,399.214a6,6 0 0 0 -6,6l0,25.715a6,6 0 0 0 12,0l0,-25.715a6,6 0 0 0 -6,-6z"/>
  <path id="svg_14" fill="#07c17e" d="m453.37,241l-282.857,0a14.238,14.238 0 0 0 -14.513,14.214l0,85.715c0,8.034 6.479,15.071 14.513,15.071l28.487,0l0,5l-28.487,0a14.238,14.238 0 0 0 -14.513,14.214l0,85.715c0,8.034 6.479,15.071 14.513,15.071l282.857,0c8.035,0 14.63,-7.037 14.63,-15.071l0,-85.715a14.337,14.337 0 0 0 -14.63,-14.214l-28.37,0l0,-5l28.37,0c8.035,0 14.63,-7.037 14.63,-15.071l0,-85.715a14.337,14.337 0 0 0 -14.63,-14.214zm-40.37,122l-202,0l0,-11l202,0l0,11zm43,12.214l0,85.715c0,1.418 -1.212,3.071 -2.63,3.071l-282.857,0c-1.418,0 -2.513,-1.653 -2.513,-3.071l0,-85.715a2.242,2.242 0 0 1 2.513,-2.214l29.366,0a7.521,7.521 0 0 0 4.92,2l214.285,0a7.517,7.517 0 0 0 4.92,-2l29.366,0a2.344,2.344 0 0 1 2.63,2.214zm0,-34.285c0,1.418 -1.212,3.071 -2.63,3.071l-28.87,0a5.225,5.225 0 0 0 -5.415,-4l-214.285,0a5.226,5.226 0 0 0 -5.415,4l-28.872,0c-1.418,0 -2.513,-1.653 -2.513,-3.071l0,-85.715a2.242,2.242 0 0 1 2.513,-2.214l282.857,0a2.344,2.344 0 0 1 2.63,2.214l0,85.715z"/>
  <path id="svg_15" fill="#07c17e" d="m371.513,277.5a20.572,20.572 0 1 0 20.571,20.571a20.595,20.595 0 0 0 -20.571,-20.571zm0,29.143a8.572,8.572 0 1 1 8.571,-8.572a8.581,8.581 0 0 1 -8.571,8.572z"/>
  <path id="svg_16" fill="#07c17e" d="m421.228,277.5a20.572,20.572 0 1 0 20.572,20.571a20.6,20.6 0 0 0 -20.572,-20.571zm0,29.143a8.572,8.572 0 1 1 8.571,-8.572a8.581,8.581 0 0 1 -8.571,8.572z"/>
  <path id="svg_17" fill="#07c17e" d="m188,279.214a6,6 0 0 0 -6,6l0,25.715a6,6 0 0 0 12,0l0,-25.715a6,6 0 0 0 -6,-6z"/>
  <path id="svg_18" fill="#07c17e" d="m211,279.214a6,6 0 0 0 -6,6l0,25.715a6,6 0 0 0 12,0l0,-25.715a6,6 0 0 0 -6,-6z"/>
  <path id="svg_19" fill="#07c17e" d="m233,279.214a6,6 0 0 0 -6,6l0,25.715a6,6 0 0 0 12,0l0,-25.715a6,6 0 0 0 -6,-6z"/>
  <path id="svg_20" fill="#07c17e" d="m256,279.214a6,6 0 0 0 -6,6l0,25.715a6,6 0 0 0 12,0l0,-25.715a6,6 0 0 0 -6,-6z"/>
  <path id="svg_21" fill="#07c17e" d="m279,279.214a6,6 0 0 0 -6,6l0,25.715a6,6 0 0 0 12,0l0,-25.715a6,6 0 0 0 -6,-6z"/>
 </g>
</svg>