<?xml version="1.0" encoding="utf-8"?>
<!-- Generator: Adobe Illustrator 24.0.1, SVG Export Plug-In . SVG Version: 6.00 Build 0)  -->
<svg version="1.1" id="Layer_1" xmlns="http://www.w3.org/2000/svg" xmlns:xlink="http://www.w3.org/1999/xlink" x="0px" y="0px"
	 viewBox="0 0 512 512" style="enable-background:new 0 0 512 512;" xml:space="preserve">
<style type="text/css">
	.st0{fill:#001E2B;}
	.st1{fill:#06C17E;}
	.st2{fill:#0635C9;}
</style>
<path class="st0" d="M326.5,250.4c14.3,11.2,26.4,24.8,35.9,40.2c1.7,2.9,5.3,3.8,8.2,2.2c2.9-1.7,3.8-5.3,2.2-8.2
	c-0.1-0.1-0.1-0.2-0.2-0.3c-10.3-16.6-23.4-31.3-38.7-43.3c-2.6-2.1-6.4-1.6-8.4,1C323.4,244.5,323.8,248.3,326.5,250.4
	C326.4,250.4,326.4,250.4,326.5,250.4L326.5,250.4z"/>
<path class="st0" d="M296.1,231.9c2.6,1.2,5.1,2.4,7.6,3.8c2.9,1.6,6.6,0.4,8.1-2.5s0.4-6.6-2.5-8.1c-2.7-1.4-5.4-2.8-8.2-4.1
	c-3-1.4-6.6-0.2-8,2.8c-1.4,3-0.2,6.6,2.8,8C296,231.8,296.1,231.8,296.1,231.9L296.1,231.9z"/>
<g>
	<path class="st1" d="M155.2,338c-7.8,0-14.2,6.3-14.2,14.2c0,7.8,6.3,14.2,14.2,14.2c7.8,0,14.2-6.3,14.2-14.2c0,0,0,0,0,0
		C169.4,344.4,163,338,155.2,338z M155.2,354.4c-1.2,0-2.2-1-2.2-2.2c0-1.2,1-2.2,2.2-2.2s2.2,1,2.2,2.2c0,0,0,0,0,0
		C157.4,353.4,156.4,354.4,155.2,354.4z"/>
	<path class="st1" d="M243.4,362.6c-8.8,0-16,7.2-16,16c0,8.8,7.2,16,16,16s16-7.2,16-16c0,0,0,0,0,0
		C259.3,369.8,252.2,362.6,243.4,362.6z M243.4,382.6c-2.2,0-4-1.8-4-4c0-2.2,1.8-4,4-4c2.2,0,4,1.8,4,4c0,0,0,0,0,0
		C247.4,380.8,245.6,382.6,243.4,382.6z"/>
	<path class="st1" d="M196.8,400.5c-10.1,0-18.3,8.2-18.3,18.3s8.2,18.3,18.3,18.3c10.1,0,18.3-8.2,18.3-18.3c0,0,0,0,0,0
		C215,408.7,206.8,400.5,196.8,400.5z M196.8,425c-3.5,0-6.3-2.8-6.3-6.3c0-3.5,2.8-6.3,6.3-6.3c3.5,0,6.3,2.8,6.3,6.3c0,0,0,0,0,0
		C203,422.2,200.2,425,196.8,425z"/>
	<path class="st1" d="M351,366.1c-8.4,0-15.2,6.8-15.2,15.2s6.8,15.2,15.2,15.2c8.4,0,15.2-6.8,15.2-15.2c0,0,0,0,0,0
		C366.2,372.9,359.4,366.1,351,366.1z M351,384.5c-1.8,0-3.2-1.4-3.2-3.2c0-1.8,1.4-3.2,3.2-3.2c1.8,0,3.2,1.4,3.2,3.2c0,0,0,0,0,0
		C354.2,383.1,352.8,384.5,351,384.5L351,384.5z"/>
	<path class="st1" d="M286.9,411.6c-11.2,0-20.3,9.1-20.3,20.3c0,11.2,9.1,20.3,20.3,20.3c11.2,0,20.3-9.1,20.3-20.3c0,0,0,0,0,0
		C307.2,420.7,298.1,411.6,286.9,411.6z M286.9,440.2c-4.6,0-8.3-3.7-8.3-8.3s3.7-8.3,8.3-8.3s8.3,3.7,8.3,8.3c0,0,0,0,0,0
		C295.2,436.5,291.5,440.2,286.9,440.2z"/>
	<path class="st1" d="M256.7,480.5C256,480.5,257.4,480.5,256.7,480.5z"/>
	<path class="st1" d="M400.5,337.6c0-3.6-0.1-7.3-0.4-11c-0.2-3.3-3.1-5.8-6.4-5.5c-0.9,0.1-1.7,0.3-2.5,0.8
		c-11.2,6.3-22.8,11.6-34.9,15.9c-19,6.7-37.7,10.1-55.8,10.1c-21.9,0.1-43.4-5.3-62.6-15.7c-25.7-14-64.7-30-103.9-26.8
		c-4,0.3-8.1,0.9-12.1,1.6c-2.4,0.5-4.3,2.4-4.8,4.8c-14.2,77.6,37.1,152.1,114.8,166.4c77.6,14.2,152.1-37.1,166.4-114.8
		C399.7,354.9,400.5,346.3,400.5,337.6L400.5,337.6z M256.8,468.5c-35-0.5-68.5-14.9-92.9-40c-28.6-29.2-41.8-70-35.8-110.4
		c2.2-0.3,4.4-0.6,6.7-0.8c36.3-3,72.9,12.1,97.2,25.3c21,11.4,44.5,17.3,68.4,17.1c19.4,0,39.6-3.6,59.8-10.7
		c9.7-3.4,19.1-7.5,28.3-12.2v0.7c0.1,35.1-14,68.7-39,93.3C324.7,455.1,291.4,468.6,256.8,468.5L256.8,468.5z"/>
</g>
<path class="st2" d="M256.5,503C255.8,503,257.3,503,256.5,503z"/>
<path class="st0" d="M423,337.6c0-64.5-37.5-123.1-96-150.2c-10.4-4.8-17.2-15.2-17.3-26.7V57.6h1.5c12.7,0,22.9-10.3,22.9-22.9
	c0,0,0,0,0,0v-0.7c0-12.7-10.3-22.9-22.9-22.9c0,0,0,0,0,0H204.3c-12.7,0-22.9,10.3-22.9,22.9c0,0,0,0,0,0v0.7
	c0,12.7,10.3,22.9,22.9,22.9h1.5V79c0,3.3,2.7,6,6,6s6-2.7,6-6V57.6h79.9v103.2c0.1,16.2,9.5,30.8,24.2,37.5
	C399,233.8,432.7,325,397.2,402s-126.7,110.8-203.7,75.3S82.7,350.7,118.2,273.7c15.3-33.4,42.1-60.1,75.5-75.4
	c14.6-6.7,24-21.2,24.1-37.2v-30c0-3.3-2.7-6-6-6s-6,2.7-6,6v30c-0.1,11.4-6.8,21.6-17.1,26.3c-27.9,12.9-51.8,33.2-68.8,58.8
	c-43.1,64.7-35.1,150.8,19.3,206.4c30.9,31.7,73.1,49.9,117.4,50.4c43.7,0,86-16.8,117.1-47.6C405.3,424.4,423.1,381.9,423,337.6
	L423,337.6z M204.3,45.6c-6,0-10.9-4.9-10.9-10.9v-0.7c0-6,4.9-10.9,10.9-10.9h106.9c6,0,10.9,4.9,10.9,10.9v0.7
	c0,6-4.9,10.9-10.9,10.9H204.3z"/>
</svg>
