<?xml version="1.0" encoding="utf-8"?>
<!-- Generator: Adobe Illustrator 24.0.1, SVG Export Plug-In . SVG Version: 6.00 Build 0)  -->
<svg version="1.1" id="Capa_1" xmlns="http://www.w3.org/2000/svg" xmlns:xlink="http://www.w3.org/1999/xlink" x="0px" y="0px"
	 viewBox="0 0 492 492" style="enable-background:new 0 0 492 492;" xml:space="preserve">
<style type="text/css">
	.st0{fill:#001E2B;}
	.st1{fill:#06C17E;}
</style>
<g>
	<path class="st0" d="M37.4,453.6c2.1,1,4.5,0.7,6.3-0.7L77.4,426l33.7,26.9c2.2,1.8,5.3,1.8,7.5,0l33.6-26.9l33.6,26.9
		c2.2,1.8,5.3,1.8,7.5,0l37.4-29.9c0.1-0.1,0.2-0.1,0.2-0.2l5.3-4.7l-8-9l-5.2,4.6l-33.5,26.8L156,413.6c-2.2-1.8-5.3-1.8-7.5,0
		l-33.6,26.9l-33.7-26.9c-2.2-1.8-5.3-1.8-7.5,0L46,435.7V54.6C46,31.1,65.1,12,88.6,12h261.1c-10.5,9.2-16.5,22.4-16.5,36.4v210.9
		h12V166h78.7c3.3,0,6-2.7,6-6V48.4c0-25.8-20.3-47-46-48.3V0H88.6C58.5,0,34,24.5,34,54.6v393.6C34,450.5,35.3,452.6,37.4,453.6z
		 M417.9,48.4V154h-72.7V48.4c0.1-20,16.4-36.2,36.4-36.2C401.5,12.2,417.8,28.4,417.9,48.4z"/>
	<path class="st0" d="M78.8,203.5h2.7c3.3,0,6-2.7,6-6s-2.7-6-6-6h-2.7c-3.3,0-6,2.7-6,6S75.5,203.5,78.8,203.5z"/>
	<path class="st0" d="M128.4,191.5h-20.2c-3.3,0-6,2.7-6,6s2.7,6,6,6h20.2c3.3,0,6-2.7,6-6S131.7,191.5,128.4,191.5z"/>
	<path class="st0" d="M306.3,197.5c0-3.3-2.7-6-6-6H155.5c-3.3,0-6,2.7-6,6s2.7,6,6,6h144.8C303.7,203.5,306.3,200.8,306.3,197.5z"
		/>
	<path class="st0" d="M78.8,146.5h2.7c3.3,0,6-2.7,6-6s-2.7-6-6-6h-2.7c-3.3,0-6,2.7-6,6S75.5,146.5,78.8,146.5z"/>
	<path class="st0" d="M128.4,134.5h-20.2c-3.3,0-6,2.7-6,6s2.7,6,6,6h20.2c3.3,0,6-2.7,6-6S131.7,134.5,128.4,134.5z"/>
	<path class="st0" d="M300.3,134.5H155.5c-3.3,0-6,2.7-6,6s2.7,6,6,6h144.8c3.3,0,6-2.7,6-6S303.7,134.5,300.3,134.5z"/>
	<path class="st0" d="M78.8,89.5h2.7c3.3,0,6-2.7,6-6s-2.7-6-6-6h-2.7c-3.3,0-6,2.7-6,6S75.5,89.5,78.8,89.5z"/>
	<path class="st0" d="M128.4,77.5h-20.2c-3.3,0-6,2.7-6,6s2.7,6,6,6h20.2c3.3,0,6-2.7,6-6S131.7,77.5,128.4,77.5z"/>
	<path class="st0" d="M300.3,77.5H155.5c-3.3,0-6,2.7-6,6s2.7,6,6,6h144.8c3.3,0,6-2.7,6-6S303.7,77.5,300.3,77.5z"/>
	<path class="st0" d="M78.8,260.4h2.7c3.3,0,6-2.7,6-6c0-3.3-2.7-6-6-6h-2.7c-3.3,0-6,2.7-6,6C72.8,257.8,75.5,260.4,78.8,260.4z"/>
	<path class="st0" d="M134.4,254.4c0-3.3-2.7-6-6-6h-20.2c-3.3,0-6,2.7-6,6c0,3.3,2.7,6,6,6h20.2
		C131.7,260.4,134.4,257.8,134.4,254.4z"/>
	<path class="st0" d="M249.4,254.4c0-3.3-2.7-6-6-6h-87.9c-3.3,0-6,2.7-6,6c0,3.3,2.7,6,6,6h87.9
		C246.7,260.4,249.4,257.8,249.4,254.4z"/>
	<path class="st0" d="M95.8,322.6c6.1,0,11,4.9,11,11c0,3.3,2.7,6,6,6s6-2.7,6-6c0-10.4-7-19.5-17-22.2v-4.1c0-3.3-2.7-6-6-6
		c-3.3,0-6,2.7-6,6v4.1c-11.1,3-18.3,13.8-16.8,25.2c1.5,11.4,11.3,20,22.8,20c6.1,0,11,4.9,11.1,10.9c0,6.1-4.9,11-10.9,11.1
		c0,0-0.1,0-0.1,0c0,0-0.1,0-0.1,0c-6-0.1-10.9-5-10.9-11c0-3.3-2.7-6-6-6s-6,2.7-6,6c0,10.4,7,19.5,17,22.2v4.9c0,3.3,2.7,6,6,6
		c3.3,0,6-2.7,6-6v-4.9c11.1-3,18.3-13.8,16.8-25.2c-1.5-11.4-11.3-20-22.8-20c-6.1,0-11-4.9-11-11S89.7,322.6,95.8,322.6z"/>
	<path class="st0" d="M150.5,363.2c-3.3,0-6,2.7-6,6s2.7,6,6,6h50.7c3.3,0,6-2.7,6-6s-2.7-6-6-6H150.5z"/>
</g>
<path class="st1" d="M338.5,492c66.3,0,120-53.7,120-120c0-66.3-53.7-120-120-120c-66.3,0-120,53.7-120,120
	C218.6,438.3,272.2,491.9,338.5,492z M338.5,264.1c59.6,0,108,48.3,108,108c0,59.6-48.3,108-108,108s-108-48.3-108-108
	C230.6,312.4,278.9,264.1,338.5,264.1z"/>
<path class="st1" d="M312,407.2c2.1,2.5,5.8,2.8,8.3,0.8l77-62.6c2.5-2.1,2.9-5.9,0.8-8.4c-2.1-2.6-5.8-3-8.4-0.9L317.3,395
	L288,360.7c-1.4-1.6-3.6-2.4-5.7-2c-2.1,0.4-3.9,1.9-4.6,3.9s-0.3,4.3,1.1,5.9L312,407.2z"/>
</svg>
