<?xml version="1.0" encoding="utf-8"?>
<!-- Generator: Adobe Illustrator 24.0.1, SVG Export Plug-In . SVG Version: 6.00 Build 0)  -->
<svg version="1.1" id="Layer_1" xmlns="http://www.w3.org/2000/svg" xmlns:xlink="http://www.w3.org/1999/xlink" x="0px" y="0px"
	 viewBox="0 0 512 512" style="enable-background:new 0 0 512 512;" xml:space="preserve">
<style type="text/css">
	.st0{fill:#001E2B;}
	.st1{fill:#06C17E;}
</style>
<path class="st0" d="M57.8,121.4L57.8,121.4l3.8-3.8L57.8,121.4z"/>
<path class="st0" d="M390,393.8l-52-52l-0.1-0.1c-3-3.3-9.4-8.7-17.9-8.7c-6.3,0-12.7,3.1-18.5,8.8L287,356.2
	c-7.6,7.6-17.9,11.9-28.6,11.8h0c-10.7,0-21.1-4.2-28.6-11.9L139.9,266c-15.8-15.8-15.7-41.4,0.1-57.2c0.1-0.1,0.1-0.1,0.2-0.2
	l14.2-14c12.3-12.3,12.3-25.4,0-37.7c-1.9-1.9-45.7-46.2-51.8-51.9l-0.2-0.2c-5.5-5.5-11.7-8.4-18-8.4c-6.3,0-12.7,2.9-18.5,8.3
	c0,0-0.1,0.1-0.1,0.1l-32.2,32.2c-8.7,8.4-13.9,19.7-14.8,31.8c-1.5,18.4,1.9,37.4,10.9,61.7c14.5,39.2,36.4,75.7,69,115
	c39.5,47.2,87.1,84.4,141.3,110.7c20,9.6,46.7,20.8,75.8,22.7c1.6,0.1,3.3,0.1,4.7,0.1c16.4,0,29.1-5.4,39.9-16.9
	c0.1-0.1,0.1-0.1,0.2-0.2l29.5-30.2C402,419.4,401.9,405.6,390,393.8L390,393.8z M370.2,434.7c-6.5,6.1-12.7,12.5-18.6,19.2
	c-8.5,9-18,13-31,13c-1.3,0-2.7,0-4-0.1c-27.1-1.7-52.4-12.4-71.4-21.5c-52.7-25.5-98.9-61.7-137.3-107.6
	c-31.7-38.2-52.9-73.6-67-111.4c-8.4-22.5-11.6-40-10.2-56.5c0.6-9.2,4.6-17.9,11.3-24.3L61.6,126l8.2,8.2c2.3,2.3,6.1,2.3,8.5,0
	c2.3-2.3,2.3-6.1,0-8.5l-8.1-8.2l4-4c3.5-3.3,7-5,10.2-5c3.9,0,7.3,2.6,9.6,4.9l0.2,0.2c0.1,0.1,0.1,0.1,0.2,0.2
	c5.6,5.2,51.1,51.2,51.6,51.7c7.7,7.7,7.7,13.1,0,20.7l-3.6,3.6L106.5,154c-2.3-2.4-6.1-2.4-8.5-0.1c-2.4,2.3-2.4,6.1-0.1,8.5
	c0,0,0.1,0.1,0.1,0.1l35.7,35.7l-2,1.9c-20.6,20.3-20.9,53.5-0.5,74.2c0.1,0.1,0.1,0.1,0.2,0.2l89.8,90.1
	c9.8,9.9,23.2,15.5,37.1,15.4h0.1c13.9,0,27.3-5.5,37.1-15.3l2.4-2.4L370.2,434.7L370.2,434.7z M381.8,423.1
	c-0.3,0.2-0.5,0.5-0.7,0.8c-0.7,0.8-1.5,1.6-2.2,2.3l-72.4-72.4l3.5-3.5c2-2,5.9-5.3,10-5.3c4.2,0,7.8,3.5,9.2,4.9
	c0.1,0.1,0.1,0.1,0.2,0.2l52.2,52.2C388.8,409.5,388.9,415.6,381.8,423.1L381.8,423.1z"/>
<path class="st0" d="M64.9,216.5c-1.4-3.3-2.7-6.7-3.9-10.1c-1.2-3.1-4.6-4.7-7.7-3.5c-3.1,1.2-4.7,4.6-3.5,7.7l0,0
	c1.3,3.5,2.7,7.1,4.1,10.5c1.3,3.1,4.8,4.5,7.8,3.3C64.7,223.1,66.1,219.6,64.9,216.5L64.9,216.5z"/>
<path class="st0" d="M73,234.6c-1.5-2.9-5.1-4.1-8.1-2.6c-2.8,1.5-4,4.9-2.7,7.8c13.7,28.3,32.1,56.3,56.5,85.7
	c2.1,2.6,5.9,3,8.4,0.9c2.6-2.1,3-5.9,0.9-8.4c0,0-0.1-0.1-0.1-0.1C104.2,289.2,86.2,262,73,234.6L73,234.6z"/>
<g>
	<path class="st1" d="M462.2,33H206.3C189,33,175,47.1,175,64.4v146.5c0,17.2,14,31.2,31.2,31.1c0,0,0.1,0,0.1,0h61.1
		c23.2,0,26.8,18.1,28.5,36.5c0.2,2.7,0.5,5.4,1.1,8.1c0.6,2.6,2.6,4.6,5.2,5c1.3,0.2,2.6,0,3.8-0.6c4.9-1.9,27.1-12.3,33.1-46.1
		c0.3-1.6,1.6-2.8,3.3-2.8h119.7c17.3,0,31.8-13.8,31.8-31.1V64.4C494,47.1,479.5,33,462.2,33L462.2,33z M482,210.9
		c0,10.7-9.1,19.1-19.8,19.1H342.5c-7.4,0-13.8,5.4-15.1,12.7c-3.5,19.5-13.1,29.2-19.6,33.6c-1.4-14.7-5.2-46.3-40.4-46.3h-61.1
		c-10.6,0.1-19.2-8.4-19.3-19c0,0,0-0.1,0-0.1V64.4c0-10.7,8.6-19.4,19.3-19.4h255.9c10.7,0,19.8,8.7,19.8,19.4L482,210.9z"/>
	<path class="st1" d="M265.7,152h-51.4c-3.3,0-6,2.7-6,6s2.7,6,6,6h51.4c3.3,0,6-2.7,6-6S269,152,265.7,152z"/>
	<path class="st1" d="M405.6,164c3.3,0,6-2.7,6-6s-2.7-6-6-6H298c-3.3,0-6,2.7-6,6s2.7,6,6,6H405.6z"/>
	<path class="st1" d="M454.2,152h-23.5c-3.3,0-6,2.7-6,6s2.7,6,6,6h23.5c3.3,0,6-2.7,6-6S457.6,152,454.2,152L454.2,152z"/>
	<path class="st1" d="M214.3,130h17.8c3.3,0,6-2.7,6-6s-2.7-6-6-6h-17.8c-3.3,0-6,2.7-6,6S211,130,214.3,130z"/>
	<path class="st1" d="M270.1,118h-13c-3.3,0-6,2.7-6,6s2.7,6,6,6H270c3.3,0,6-2.7,6-6S273.4,118,270.1,118L270.1,118z"/>
	<path class="st1" d="M454.2,118h-159c-3.3,0-6,2.7-6,6s2.7,6,6,6h159c3.3,0,6-2.7,6-6S457.6,118,454.2,118L454.2,118z"/>
	<path class="st1" d="M214.3,91h14.4c3.3,0,6-2.7,6-6s-2.7-6-6-6h-14.4c-3.3,0-6,2.7-6,6S211,91,214.3,91z"/>
	<path class="st1" d="M254,91h44.9c3.3,0,6-2.7,6-6s-2.7-6-6-6H254c-3.3,0-6,2.7-6,6S250.7,91,254,91z"/>
	<path class="st1" d="M454.2,79H324.1c-3.3,0-6,2.7-6,6s2.7,6,6,6h130.2c3.3,0,6-2.7,6-6S457.6,79,454.2,79L454.2,79z"/>
	<path class="st1" d="M339.2,185h-49.4c-3.3,0-6,2.7-6,6s2.7,6,6,6h49.4c3.3,0,6-2.7,6-6S342.5,185,339.2,185z"/>
	<path class="st1" d="M454.2,185h-83.5c-3.3,0-6,2.7-6,6s2.7,6,6,6h83.6c3.3,0,6-2.7,6-6S457.6,185,454.2,185L454.2,185L454.2,185z"
		/>
</g>
</svg>
