<?xml version="1.0" encoding="utf-8"?>
<!-- Generator: Adobe Illustrator 24.0.1, SVG Export Plug-In . SVG Version: 6.00 Build 0)  -->
<svg version="1.1" id="Layer_1" xmlns="http://www.w3.org/2000/svg" xmlns:xlink="http://www.w3.org/1999/xlink" x="0px" y="0px"
	 viewBox="0 0 512 512" style="enable-background:new 0 0 512 512;" xml:space="preserve">
<style type="text/css">
	.st0{fill:#001E2B;}
	.st1{fill:#06C17E;}
</style>
<g>
	<path class="st0" d="M146,334c0-3.3-2.7-6-6-6H88c-3.3,0-6,2.7-6,6v88c0,3.3,2.7,6,6,6h52c3.3,0,6-2.7,6-6V334z M94,340h40v76H94
		V340z"/>
	<path class="st0" d="M430,334c0-3.3-2.7-6-6-6h-52c-3.3,0-6,2.7-6,6v88c0,3.3,2.7,6,6,6h52c3.3,0,6-2.7,6-6V334z M378,340h40v76
		h-40V340z"/>
	<path class="st0" d="M453,450H341V265.1c-0.1-3.4-2.8-6.1-6.2-6.1H174.7c-3.2,0.1-5.8,2.7-5.7,6c0,0,0,0.1,0,0.1V450H59V191H47
		v265.1c0,3.3,2.2,5.9,5.5,5.9h407c3.3,0,5.5-2.6,5.5-5.9V191h-12V450z M329,271v29H181v-29H329z M181,312h148v138H181V312z"/>
	<path class="st0" d="M198,320.5c-3.3,0-6,2.7-6,6v4.8c0,3.3,2.7,6,6,6s6-2.7,6-6v-4.8C204,323.1,201.3,320.5,198,320.5z"/>
	<path class="st0" d="M198,348.3c-3.3,0-6,2.7-6,6V420c0,3.3,2.7,6,6,6s6-2.7,6-6v-65.7C204,351,201.3,348.3,198,348.3L198,348.3z"
		/>
</g>
<path class="st1" d="M500.9,127l-52-74.5c-1.1-1.6-3-2.5-4.9-2.5H78.3c-1.8,0-3.6,0.8-4.8,2.1L11,126.6v0c0,1-1,2.4-1,3.8v20.2v0.6
	c0.1,25.2,20.5,45.6,45.7,45.7h0.9c12.2-0.1,23.8-5,32.3-13.7c1.7-1.7,3.2-3.6,4.6-5.5c9.8,31.1,42.8,48.4,73.9,38.6
	c15.6-4.9,28.5-16.1,35.5-30.8c14,29.3,49.2,41.8,78.6,27.7c12.3-5.9,22.2-15.9,28-28.3c13.7,29.5,48.8,42.3,78.3,28.6
	c14.9-6.9,26.2-19.7,31.2-35.3c1.4,1.9,2.9,3.8,4.6,5.5c8.5,8.5,20,13.3,32.1,13.3h0.9c12.2-0.1,23.8-5,32.3-13.7
	c8.5-8.7,13.3-20.4,13.2-32.5v-20.3C502,129.2,501.6,128,500.9,127L500.9,127z M484.5,124h-65.1L382,62h58.9L484.5,124z M198.6,124
	h-90.9l45.1-62h67.9L198.6,124z M233.4,62h45.2l22.1,62h-89.3L233.4,62z M313.4,124l-22.1-62H368l37.4,62H313.4z M81.1,62H138
	l-45.1,62H28.8L81.1,62z M90,150.8c0.1,9-3.4,17.6-9.7,24.1c-6.2,6.4-14.8,10.1-23.8,10.2H56c-18.7,0-33.9-15.1-34-33.8V136h68
	V150.8z M150,207c-25.9-0.2-46.9-21.2-47-47.1V136h94v23.8C196.9,185.8,176,206.8,150,207z M303,159.8c0,26-21,47-47,47
	c-26,0-47-21-47-47V136h94V159.8z M410,159.8c0,26-21,47-47,47c-26,0-47-21-47-47V136h94V159.8z M490,150.8c0.1,9-3.4,17.6-9.7,24.1
	c-6.2,6.4-14.8,10.1-23.8,10.2H456c-18.7,0-33.9-15.1-34-33.8V136h68V150.8z"/>
</svg>
