<?xml version="1.0" encoding="utf-8"?>
<!-- Generator: Adobe Illustrator 24.0.1, SVG Export Plug-In . SVG Version: 6.00 Build 0)  -->
<svg version="1.1" id="Capa_1" xmlns="http://www.w3.org/2000/svg" xmlns:xlink="http://www.w3.org/1999/xlink" x="0px" y="0px"
	 viewBox="0 0 489 489" style="enable-background:new 0 0 489 489;" xml:space="preserve">
<style type="text/css">
	.st0{fill:#06C17E;}
	.st1{fill:#001E2B;}
</style>
<path class="st0" d="M203.8,450.9l5.8,27.4c0.5,2.4,2.4,4.2,4.8,4.7c2.4,0.4,4.8-0.6,6.1-2.6l25.6-39.4c1.8-2.8,1-6.5-1.8-8.3
	L205,407c-2-1.3-4.7-1.3-6.7,0.1c-2,1.4-3,3.8-2.5,6.2l5.5,25.8c-33.6,3.3-67.1-7.6-92.5-29.9c-25.4-22.3-40.4-54.1-41.6-87.9
	c0-2.2-1.3-4.1-3.2-5.2c-1.9-1-4.2-0.9-6,0.2c-1.8,1.2-2.9,3.2-2.8,5.4c1.2,37.3,17.9,72.5,46.1,97
	C129.5,443.2,166.7,454.9,203.8,450.9z M232.8,439.4l-14.5,22.2l-3.9-18.2c0,0,0,0,0,0c0-0.2-0.1-0.5-0.2-0.7l-3.7-17.7L232.8,439.4
	z"/>
<path class="st0" d="M244.6,50.4L284,76c2,1.3,4.7,1.3,6.7-0.1c2-1.4,3-3.8,2.5-6.2l-5.5-25.8c33.6-3.2,67.1,7.6,92.5,29.9
	c25.4,22.3,40.4,54.1,41.6,87.9c0.1,3.2,2.8,5.8,6,5.8h0.2c3.3-0.1,5.9-2.9,5.8-6.2c-1.2-37.3-18-72.4-46.1-96.9
	c-28.2-24.5-65.3-36.2-102.4-32.2l-5.8-27.4c-0.5-2.4-2.4-4.2-4.8-4.7c-2.4-0.4-4.8,0.6-6.1,2.6l-25.6,39.4
	C241.1,44.9,241.9,48.6,244.6,50.4z M270.6,21.4l3.9,18.2v0c0,0.2,0.1,0.5,0.2,0.7l3.7,17.7l-22.2-14.5L270.6,21.4z"/>
<g>
	<path class="st1" d="M424.5,412.9v-10.4h34.3c14.2,0,25.9-11.9,25.9-26.2V255.8c0-1.4-0.6-2.7-1.5-3.7l-52.2-52c0,0,0,0,0,0
		c-1-1-2.3-1.6-3.7-1.6c-0.2,0-0.3,0.1-0.5,0.1c-0.2,0-0.3,0.1-0.5,0.1h-72.4c-6.8,0-13.3,2.7-18.2,7.5c-4.8,4.8-7.5,11.3-7.5,18.1
		v10.5h-34.5c-14.2,0-25.7,11.8-25.7,26.1v152.1c0,6.8,2.7,13.4,7.5,18.2c4.8,4.8,11.4,7.5,18.2,7.5h105.1c6.8,0,13.4-2.7,18.2-7.5
		C421.8,426.3,424.5,419.7,424.5,412.9z M372,252.6l35,34.6h-19.3c-8.6,0-15.6-6.9-15.7-15.4V252.6z M432.2,216l34.9,35.1h-19.3
		c-8.5,0-15.6-7.4-15.6-15.9V216z M338.5,224.2c0-4.1,1.6-8,4.5-10.8c2.9-2.9,6.8-4.5,10.9-4.4h68.1v26.2
		c0,14.2,11.7,26.2,25.9,26.2h26.5v114.9c0,8.5-7,15.9-15.6,15.9h-34.3v-99.8c0-1.4-0.5-2.7-1.5-3.7l-52.1-52l0,0
		c-1-1-2.3-1.6-3.7-1.6c-0.2,0-0.3-0.1-0.5-0.1c-0.2,0-0.3-0.1-0.5-0.1h-27.7V224.2z M278.3,412.9V260.8c0-8.6,6.8-15.6,15.4-15.7
		h68v26.7c0,14.2,11.8,25.8,26.1,25.8h26.4v115.3c0,4.1-1.6,8-4.5,10.9c-2.9,2.9-6.8,4.5-10.9,4.5H293.7c-4.1,0-8-1.6-10.9-4.5
		C279.9,420.9,278.2,417,278.3,412.9z"/>
	<path class="st1" d="M364.6,352.9h-11c-3,0-5.5,2.5-5.5,5.5c0,3,2.5,5.5,5.5,5.5h11c3,0,5.5-2.5,5.5-5.5
		C370.1,355.3,367.6,352.9,364.6,352.9z"/>
	<path class="st1" d="M384.2,325.3h-91.5c-3,0-5.5,2.5-5.5,5.5c0,3,2.5,5.5,5.5,5.5h91.5c3,0,5.5-2.5,5.5-5.5
		C389.7,327.8,387.3,325.3,384.2,325.3z"/>
	<path class="st1" d="M331.3,352.9h-38.6c-3,0-5.5,2.5-5.5,5.5c0,3,2.5,5.5,5.5,5.5h38.6c3,0,5.5-2.5,5.5-5.5
		C336.9,355.3,334.4,352.9,331.3,352.9z"/>
</g>
<g>
	<path class="st1" d="M160.8,253.9v-10.4h34.3c14.2,0,25.9-11.9,25.9-26.2V96.7c0-1.4-0.6-2.7-1.5-3.7l-52.2-52c0,0,0,0,0,0
		c-1-1-2.3-1.6-3.7-1.6c-0.2,0-0.3,0.1-0.5,0.1c-0.2,0-0.3,0.1-0.5,0.1H90.1c-6.8,0-13.3,2.7-18.2,7.5c-4.8,4.8-7.5,11.3-7.5,18.1
		v10.5H30c-14.2,0-25.7,11.8-25.7,26.1v152.1c0,6.8,2.7,13.4,7.5,18.2s11.4,7.5,18.2,7.5h105.1c6.8,0,13.4-2.7,18.2-7.5
		C158.1,267.3,160.8,260.7,160.8,253.9z M108.4,93.6l35,34.6h-19.3c-8.6,0-15.6-6.9-15.7-15.4V93.6z M168.6,57l34.9,35.1h-19.3
		c-8.5,0-15.6-7.4-15.6-15.9V57z M74.8,65.2c0-4.1,1.6-8,4.5-10.8c2.9-2.9,6.8-4.5,10.9-4.4h68.1v26.2c0,14.2,11.7,26.2,25.9,26.2
		h26.5v114.9c0,8.5-7,15.9-15.6,15.9h-34.3v-99.8c0-1.4-0.5-2.7-1.5-3.7l-52.1-52l0,0c-1-1-2.3-1.6-3.7-1.6c-0.2,0-0.3-0.1-0.5-0.1
		c-0.2,0-0.3-0.1-0.5-0.1H74.8V65.2z M14.6,253.9V101.8c0-8.6,6.8-15.6,15.4-15.7h68v26.7c0,14.2,11.8,25.8,26.1,25.8h26.4v115.3
		c0,4.1-1.6,8-4.5,10.9c-2.9,2.9-6.8,4.5-10.9,4.5H30c-4.1,0-8-1.6-10.9-4.5S14.6,258,14.6,253.9z"/>
	<path class="st1" d="M100.9,193.8h-11c-3,0-5.5,2.5-5.5,5.5c0,3,2.5,5.5,5.5,5.5h11c3,0,5.5-2.5,5.5-5.5
		C106.5,196.3,104,193.8,100.9,193.8z"/>
	<path class="st1" d="M120.6,166.3H29.1c-3,0-5.5,2.5-5.5,5.5c0,3,2.5,5.5,5.5,5.5h91.5c3,0,5.5-2.5,5.5-5.5
		C126.1,168.8,123.6,166.3,120.6,166.3z"/>
	<path class="st1" d="M67.7,193.8H29.1c-3,0-5.5,2.5-5.5,5.5c0,3,2.5,5.5,5.5,5.5h38.6c3,0,5.5-2.5,5.5-5.5
		C73.2,196.3,70.7,193.8,67.7,193.8z"/>
</g>
</svg>
