<?xml version="1.0" encoding="utf-8"?>
<!-- Generator: Adobe Illustrator 24.0.1, SVG Export Plug-In . SVG Version: 6.00 Build 0)  -->
<svg version="1.1" id="Layer_1" xmlns="http://www.w3.org/2000/svg" xmlns:xlink="http://www.w3.org/1999/xlink" x="0px" y="0px"
	 viewBox="0 0 512 512" style="enable-background:new 0 0 512 512;" xml:space="preserve">
<style type="text/css">
	.st0{fill:#06C17E;}
	.st1{fill:#001E2B;}
</style>
<path class="st0" d="M97.1,507c17.8,0,32.2-14.4,32.2-32.2c0-15.5-11.1-28.8-26.3-31.6V418c0-5.2,4.4-10,9.6-10H250v35.2
	c-7.7,1.4-14.7,5.6-19.4,11.8c-10.9,14-8.4,34.2,5.6,45.2c14,10.9,34.2,8.4,45.2-5.6c10.9-14,8.4-34.2-5.6-45.2
	c-4-3.1-8.7-5.3-13.8-6.2V408h137.4c5.2,0,9.6,4.8,9.6,10v25.2c-7.7,1.4-14.7,5.6-19.5,11.8c-10.9,14-8.4,34.2,5.7,45.1
	c14,10.9,34.2,8.4,45.1-5.7c10.9-14,8.4-34.2-5.7-45.1c-4-3.1-8.7-5.2-13.7-6.2V418c0-11.9-9.8-22-21.6-22H262v-50h-12v50H112.6
	c-11.9,0-21.6,10.1-21.6,22v25.2c-17.5,3.3-28.9,20.2-25.6,37.7C68.3,496,81.6,507,97.1,507z M276,472.3
	c1.4,11.1-6.5,21.2-17.6,22.5c-11.1,1.4-21.2-6.5-22.5-17.6c-1.4-11.1,6.5-21.2,17.6-22.5c0.8-0.1,1.7-0.2,2.5-0.2
	C266.2,454.6,274.8,462.2,276,472.3z M434.9,472.3c1.4,11.1-6.5,21.2-17.6,22.5c-11.1,1.4-21.2-6.5-22.5-17.6
	c-1.4-11.1,6.5-21.2,17.6-22.5c0.8-0.1,1.7-0.2,2.5-0.2C425.1,454.6,433.7,462.2,434.9,472.3L434.9,472.3z M97.1,454.6
	c11.2,0,20.2,9,20.2,20.2c0,11.2-9,20.2-20.2,20.2s-20.2-9-20.2-20.2C76.9,463.6,86,454.6,97.1,454.6z"/>
<g>
	<path class="st1" d="M118.3,351h275.3c8-0.1,14.3-6.6,14.3-14.6V253c0-7.7-6.3-14-14.1-14c-0.1,0-0.2,0-0.2,0H366v-5h27.7
		c7.9,0,14.3-6.5,14.3-14.4v-83.4c0-7.8-6.4-14.2-14.2-14.2c0,0-0.1,0-0.1,0H366v-5h27.7c7.9,0,14.3-6.3,14.3-14.2c0,0,0,0,0-0.1
		V19.3c0-7.9-6.4-14.3-14.3-14.3H118.3c-7.9,0-14.3,6.4-14.3,14.3v83.4c0,7.9,6.4,14.2,14.3,14.2c0,0,0,0,0.1,0H146v5h-27.7
		c-7.8-0.1-14.3,6.2-14.3,14c0,0,0,0.1,0,0.1v83.4c0,7.9,6.4,14.4,14.3,14.4H146v5h-27.7c-7.7-0.2-14.2,6-14.3,13.7
		c0,0.1,0,0.2,0,0.2v83.4C104,344.4,110.4,350.9,118.3,351L118.3,351z M118.3,105c-1.2,0.1-2.3-0.9-2.3-2.1c0,0,0-0.1,0-0.1V19.3
		c0-1.3,1-2.3,2.3-2.3c0,0,0,0,0,0h275.3c1.3,0,2.3,1.1,2.3,2.3c0,0,0,0,0,0v83.4c0,1.2-1,2.2-2.3,2.2c0,0-0.1,0-0.1,0H366v-3.5
		c0-3.6-2.9-6.5-6.5-6.5H218c-3.3,0-6,2.7-6,6s2.7,6,6,6h136v24H158v-24h18c3.3,0,6-2.7,6-6s-2.7-6-6-6h-24.3
		c-3.2,0-5.7,2.6-5.7,5.7c0,0,0,0,0,0v4.3H118.3z M118.3,222c-1.3,0-2.3-1.1-2.3-2.4v-83.4c0-1.2,1-2.2,2.2-2.2c0,0,0.1,0,0.1,0H146
		v2.6c0,3.5,2.9,6.4,6.4,6.4h207.9c3.2,0,5.7-2.6,5.7-5.7c0,0,0,0,0,0V134h27.7c1.2-0.1,2.2,0.8,2.3,2c0,0,0,0.1,0,0.1v83.4
		c0,1.3-1,2.4-2.3,2.4H366v-3.7c0-3.3-2.4-6.3-5.7-6.3H151.7c-3.3,0-5.7,3-5.7,6.3v3.7L118.3,222z M354,224v23H158v-23H354z
		 M116,253c0-1.3,1-2,2.3-2H146v2.4c-0.1,3,2.2,5.5,5.2,5.6c0.2,0,0.3,0,0.5,0h208.6c3,0.2,5.5-2.1,5.7-5.1c0-0.2,0-0.3,0-0.5V251
		h27.7c1.3,0,2.3,0.7,2.3,2v83.4c0,1.3-1,2.5-2.3,2.6H118.3c-1.3-0.1-2.4-1.3-2.3-2.6L116,253z"/>
	<path class="st1" d="M362.4,314.9c11.1,0,20.2-9,20.2-20.2c0-11.1-9-20.2-20.2-20.2c-11.1,0-20.2,9-20.2,20.2c0,0,0,0,0,0
		C342.2,305.8,351.2,314.8,362.4,314.9z M362.4,286.5c4.5,0,8.2,3.7,8.2,8.2c0,4.5-3.7,8.2-8.2,8.2c-4.5,0-8.2-3.7-8.2-8.2
		c0,0,0,0,0,0C354.2,290.2,357.9,286.5,362.4,286.5z"/>
	<path class="st1" d="M217,282c0-3.3-2.7-6-6-6h-76c-3.3,0-6,2.7-6,6v25c0,3.3,2.7,6,6,6h76c3.3,0,6-2.7,6-6V282z M141,288h65v13
		h-65V288z"/>
	<path class="st1" d="M234,313.2c3.3,0,6-2.7,6-6v-25c0-3.3-2.7-6-6-6s-6,2.7-6,6v25C228,310.5,230.7,313.2,234,313.2z"/>
	<path class="st1" d="M256,313.2c3.3,0,6-2.7,6-6v-25c0-3.3-2.7-6-6-6c-3.3,0-6,2.7-6,6v25C250,310.5,252.7,313.2,256,313.2z"/>
	<path class="st1" d="M362.4,198.1c11.1,0,20.2-9,20.2-20.2c0-11.1-9-20.2-20.2-20.2c-11.1,0-20.2,9-20.2,20.2c0,0,0,0,0,0
		C342.2,189,351.2,198,362.4,198.1z M362.4,169.7c4.5,0,8.2,3.7,8.2,8.2c0,4.5-3.7,8.2-8.2,8.2c-4.5,0-8.2-3.7-8.2-8.2l0,0
		C354.2,173.4,357.9,169.7,362.4,169.7z"/>
	<path class="st1" d="M217,165c0-3.3-2.7-6-6-6h-76c-3.3,0-6,2.7-6,6v25c0,3.3,2.7,6,6,6h76c3.3,0,6-2.7,6-6V165z M206,184h-65v-13
		h65V184z"/>
	<path class="st1" d="M234,196.4c3.3,0,6-2.7,6-6v-25c0-3.3-2.7-6-6-6s-6,2.7-6,6v25C228,193.7,230.7,196.4,234,196.4L234,196.4z"/>
	<path class="st1" d="M256,196.4c3.3,0,6-2.7,6-6v-25c0-3.3-2.7-6-6-6c-3.3,0-6,2.7-6,6v25C250,193.7,252.7,196.4,256,196.4
		L256,196.4z"/>
	<path class="st1" d="M362.4,81.2c11.1,0,20.2-9,20.2-20.2c0-11.1-9-20.2-20.2-20.2c-11.1,0-20.2,9-20.2,20.2c0,0,0,0,0,0
		C342.2,72.2,351.2,81.2,362.4,81.2z M362.4,52.9c4.5,0,8.2,3.7,8.2,8.2c0,4.5-3.7,8.2-8.2,8.2s-8.2-3.7-8.2-8.2c0,0,0,0,0,0
		C354.2,56.5,357.9,52.9,362.4,52.9z"/>
	<path class="st1" d="M217,49c0-3.3-2.7-6-6-6h-76c-3.3,0-6,2.7-6,6v25c0,3.3,2.7,6,6,6h76c3.3,0,6-2.7,6-6V49z M206,68h-65V55h65
		V68z"/>
	<path class="st1" d="M234,79.6c3.3,0,6-2.7,6-6v-25c0-3.3-2.7-6-6-6s-6,2.7-6,6v25C228,76.9,230.7,79.6,234,79.6z"/>
	<path class="st1" d="M256,79.6c3.3,0,6-2.7,6-6v-25c0-3.3-2.7-6-6-6c-3.3,0-6,2.7-6,6v25C250,76.9,252.7,79.6,256,79.6z"/>
	<path class="st1" d="M277,313.2c3.3,0,6-2.7,6-6v-25c0-3.3-2.7-6-6-6s-6,2.7-6,6v25C271,310.5,273.7,313.2,277,313.2z"/>
	<path class="st1" d="M277,196.4c3.3,0,6-2.7,6-6v-25c0-3.3-2.7-6-6-6s-6,2.7-6,6v25C271,193.7,273.7,196.4,277,196.4L277,196.4z"/>
	<path class="st1" d="M277,79.6c3.3,0,6-2.7,6-6v-25c0-3.3-2.7-6-6-6s-6,2.7-6,6v25C271,76.9,273.7,79.6,277,79.6z"/>
</g>
</svg>
